<svg width="235" height="600" viewBox="0 0 235 600" fill="none" xmlns="http://www.w3.org/2000/svg">
<g clip-path="url(#clip0_808_113)">
<path fill-rule="evenodd" clip-rule="evenodd" d="M60.0941 191.632C54.9885 197.602 55.4398 199.262 58.1601 205.29C64.1699 219.276 72.7873 233.493 82.5695 246.462C81.9238 217.366 81.3684 188.111 80.4133 158.749C74.5967 170.094 68.4024 180.342 60.0941 191.632M59.1308 551.243C55.9171 550.932 33.2991 551.768 39.3522 545.174C37.4838 541.119 42.7037 537.697 45.9203 534.612C48.9299 531.742 51.8958 528.552 54.9862 524.862C57.8641 521.441 61.1083 517.397 63.2057 512.677C63.67 511.938 64.1415 511.42 64.6085 511.137L64.8778 510.974L65.0455 510.707C66.8156 507.883 68.2772 504.964 69.8856 502.087C65.9518 500.666 62.3777 499.239 57.922 497.267C64.2092 460.251 73.6319 424.187 79.7244 387.062C83.4328 354.755 85.4236 322.145 93.9095 290.328L94.9952 290.412L95.6001 288.327C94.7089 288.304 92.9033 288.244 92.0094 288.209L92.2187 289.275C88.1734 288.807 84.2093 287.655 80.2766 286.677C78.2696 286.403 76.2574 284.967 76.9796 282.576C77.2119 279.106 77.9299 275.721 78.2679 272.252C76.988 271.379 75.6677 270.382 74.4031 269.359C71.0588 270.936 67.0167 276.027 63.3599 274.732C54.8139 263.263 47.6418 249.477 41.1515 238.464C25.4755 212.994 20.5001 197.073 36.6678 170.515C50.6459 148.267 65.7239 112.905 93.7456 107.321C96.8916 106.734 100.188 106.709 103.212 105.276C103.367 103.221 104.394 102.041 105.146 102.024C106.972 101.623 108.976 100.979 110.76 100.962C111.388 100.7 112.155 100.916 112.759 101.034C114.556 97.4277 114.396 92.8237 116.365 89.443C116.437 86.8816 117.217 84.0515 125.113 83.5366C130.488 83.0881 138.1 82.6559 142.397 85.004C145.403 87.4237 145.434 92.8445 145.057 96.664C144.643 99.4691 144.828 102.731 147.025 106.026C153.287 104.093 157.654 108.179 161.574 115.8C177.984 118.034 181.523 119.303 187.89 135.554C190.926 142.602 194.088 150.132 196.455 157.847C199.625 167.279 199.903 177.152 202.985 186.65C211.355 207.585 219.866 221.095 222.546 245.467C223.854 256.228 223.103 261.564 221.859 263.18C218.322 262.158 213.759 261.374 210.044 260.939L214.019 263.962C210.651 279.231 220.352 322.777 194.048 319.432C193.815 318.864 194.244 315.737 194.357 314.44C193.638 314.491 192.308 314.538 191.599 314.449C190.345 318.068 188.462 321.319 187.273 325C186.685 327.244 185.942 329.501 185.216 331.683C168.651 387.46 165.37 441.158 172.762 497.156L172.428 497.277L172.293 497.517L172.09 497.593C171.568 498.29 170.829 498.32 169.649 498.322C162.403 498.576 156.037 498.903 150.133 499.068C150.76 502.202 150.359 505.502 150.082 508.691C153.519 508.449 156.671 509.843 159.812 511.518C165.813 514.463 171.79 517.557 177.601 520.94C183.37 524.631 192.699 527.787 188.067 534.421L189.407 534.946C189.452 534.964 189.48 534.98 189.497 534.99C189.656 535.554 187.841 537.886 187.304 537.861C174.618 538.453 163.798 535.491 147.57 532.388C143.855 531.04 125.142 528.749 125.064 525.211C125.123 524.108 126.263 524.183 127.058 524.045C124.674 512.008 132.733 511.037 133.887 500.115C132.291 500.419 130.566 500.679 128.932 500.231C127.498 476.923 129.802 453.063 127.254 429.527L124.664 429.241C115.958 454.851 106.931 481.055 99.9975 507.657C99.8654 508.235 99.2175 507.84 98.9213 507.629C94.3898 507.521 89.8569 507.037 85.4135 506.275C85.3067 508.891 85.1945 511.556 85.0843 514.17L85.7691 514.538C86.2108 515.152 86.0249 518.03 85.9449 519.268C85.8642 520.534 85.7975 521.45 85.9096 522.309C87.3387 525.126 82.4521 531.231 79.8676 534.625C74.2365 541.912 69.5719 552.703 59.1308 551.243" fill="white"/>
<path fill-rule="evenodd" clip-rule="evenodd" d="M171.403 227.251C171.403 227.251 195.86 264.548 193.929 285.193C193.815 286.415 191.843 305.372 191.833 306.687C191.766 315.201 195.342 307.607 192.786 314.486C190.698 320.103 176.423 353.428 171.438 401.985C168.635 429.294 172.391 498.044 172.391 498.044L129.506 500.707L125.694 426.903C125.135 427.802 99.2008 506.604 99.2008 506.604L78.9971 504.512L58.2217 496.522C58.2217 496.522 68.5941 453.211 78.9971 393.045C83.9225 364.559 91.4597 286.274 91.4597 286.274C91.1143 281.338 137.511 282.53 137.511 282.53C137.511 282.53 121.664 232.209 133.128 225.275C140.392 220.88 171.403 227.251 171.403 227.251Z" fill="#E3B08B"/>
<path fill-rule="evenodd" clip-rule="evenodd" d="M86.3138 524.798L86.0921 525.137C85.8079 525.576 85.5493 525.988 85.295 526.412L85.1464 526.662L84.6439 527.411L84.3178 527.903C83.8597 528.597 83.3693 529.352 82.7104 530.376L80.897 533.198L80.1373 534.372C78.233 537.301 76.9983 539.091 75.5492 540.993L75.1748 541.481L74.9797 541.724L74.7858 541.963C71.3503 546.154 67.6374 549.011 63.4285 550.216L63.288 550.256L63.1567 550.292L63.0209 550.303C57.1398 550.776 51.2567 550.271 43.2788 548.873L42.7667 548.782L42.1477 548.671L40.7997 548.425L40.4838 548.108C38.6384 546.255 38.385 544.118 39.5177 541.988C40.2597 540.593 41.3994 539.386 43.4446 537.609L45.0403 536.23C46.51 534.954 46.7536 534.703 47.1176 534.204L47.2673 533.997L47.3378 533.923C53.9412 527.037 59.4571 520.403 63.7144 512.594L63.8796 512.289L64.1286 511.828L64.6172 511.638C68.6174 510.076 73.0973 510.251 76.8478 512.158L76.9712 512.222L77.0907 512.285L77.2142 512.353C77.8451 512.705 78.3734 513.086 79.2906 513.81L79.8048 514.216L80.046 514.403C80.8429 515.017 81.3047 515.312 81.8641 515.558C82.9477 516.032 84.2342 515.953 84.6682 515.487L84.6919 515.46L84.7124 515.434L85.2874 513.832L86.3138 524.798ZM131.612 509.542C131.801 510.13 131.08 512.459 131.603 513.261C132.075 513.984 133.736 513.786 134.888 513.774L135.123 513.77L135.362 513.763C135.739 513.75 136.137 513.727 136.657 513.69L138.183 513.579L138.311 513.571C138.351 513.568 138.392 513.566 138.434 513.564L138.673 513.553L138.823 513.547L138.881 513.543C140.768 513.395 142.32 512.365 145.35 511.173L146.76 510.614C148.175 510.056 148.969 509.767 149.926 509.473L150.064 509.431L150.137 509.417C152.835 508.892 156.206 509.909 160.785 512.192L161.075 512.338L161.387 512.496C162.118 512.869 162.888 513.278 163.755 513.749L165.096 514.487C166.029 515.002 167.183 515.641 167.59 515.863L167.977 516.073L168.33 516.262C169.208 516.731 169.909 517.085 170.518 517.363L170.719 517.453L170.766 517.479C176.013 520.321 180.832 523.128 185.357 526.002L185.713 526.228L185.833 526.293C191.279 529.314 191.354 534.191 186.225 537.58L186.068 537.683L185.905 537.786L185.509 538.032L185.045 537.999C177.126 537.429 168.938 536.264 159.944 534.503L159.062 534.328C152.327 532.989 145.681 531.449 136.254 529.101L134.393 528.636L131.36 527.874L131.281 527.866C127.972 527.524 126.139 525.044 126.141 521.622L126.143 521.428L126.143 521.266C126.139 517.675 127.702 514.364 129.034 511.683L129.104 511.544L129.175 511.407L131.612 509.542Z" fill="white"/>
<path fill-rule="evenodd" clip-rule="evenodd" d="M90.9697 288.513C91.7779 288.549 92.5086 288.582 93.1183 288.624L93.3868 288.643L93.3962 288.717L93.7228 288.727C107.573 289.127 121.477 288.661 135.225 286.875L136.081 286.763C136.504 286.708 136.931 286.656 137.36 286.604L137.363 286.604C138.988 286.407 140.635 286.207 142.207 285.828C143.223 285.685 143.817 285.15 144.152 284.442C144.57 283.562 144.556 282.377 144.431 281.36L144.413 281.22C142.808 247.415 134.517 214.722 126.226 182.035L126.219 182.01C119.44 155.283 112.661 128.56 109.553 101.235L108.727 101.444L107.361 101.784C106.029 102.122 105.087 102.427 104.409 102.971C103.793 103.466 103.377 104.152 103.108 105.255C102.951 105.935 102.853 106.78 102.794 107.849C102.194 111.831 102.12 109.531 102.259 106.767C102.269 106.573 102.271 106.373 102.267 106.167C102.094 106.247 101.918 106.323 101.739 106.394C99.9839 107.082 98.1083 107.184 96.2344 107.286L96.1738 107.29C95.0383 107.351 93.9033 107.414 92.7892 107.596C87.1086 108.591 82.1032 111.813 77.6465 115.342L77.3516 115.577C60.3303 130.592 49.0396 150.996 38.1328 170.722L38.1287 170.729C37.5894 171.705 37.051 172.679 36.5129 173.65L35.8169 174.905C27.8319 188.686 24.0159 205.524 32.0162 220.175C41.2451 238.828 51.95 256.808 63.2863 274.288C63.7975 274.951 64.4012 275.135 65.0378 275.063C65.8056 274.977 66.6433 274.462 67.4149 273.969L67.4295 273.96C67.7088 273.781 67.979 273.609 68.247 273.463C75.8152 268.918 82.378 262.736 87.4251 255.506C87.4787 255.43 87.5322 255.353 87.5854 255.276C87.5291 255.2 87.4698 255.126 87.4105 255.052C74.2936 238.619 62.086 220.671 55.2783 200.679C54.9516 197.527 57.8185 194.07 60.4512 190.895C60.5154 190.818 60.5796 190.74 60.6435 190.663C61.9552 189.08 63.2045 187.57 64.0125 186.205C69.3852 178.801 74.4143 171.144 79.2319 163.343C79.3564 163.109 79.4806 162.874 79.6044 162.639L79.6661 162.521C79.6572 162.482 79.6497 162.443 79.6436 162.404C79.5998 162.121 79.6285 161.828 79.7464 161.603C79.8272 161.449 79.9544 161.328 80.1392 161.296C80.1981 161.285 80.2546 161.285 80.3085 161.294L80.322 161.268L80.3321 161.579L81.1034 160.292L81.6396 159.404C81.7352 159.246 81.8282 159.094 81.9186 158.946C81.7523 159.288 81.5728 159.657 81.3802 160.053L81.2036 160.416L80.8357 161.171C82.0907 179.789 82.378 198.646 82.6649 217.479L82.6651 217.488C82.8124 227.159 82.9597 236.822 83.2376 246.444L83.2411 246.563C83.2571 246.586 83.2733 246.607 83.2894 246.629C83.2977 246.64 83.306 246.651 83.3143 246.662C85.5304 249.593 87.8113 252.475 90.1457 255.312L90.3685 255.582C90.4229 255.545 90.4774 255.507 90.5319 255.469C90.5735 255.441 90.6151 255.412 90.6567 255.383C98.1664 250.212 107 246.839 116.073 245.793L116.419 245.759L117.394 245.659C119.642 245.432 122.501 245.195 124.559 246.004C125.26 246.28 125.865 246.68 126.305 247.259C126.693 247.771 126.949 248.421 127.038 249.238C126.887 250.59 126.077 251.415 124.906 251.951C123.174 252.743 120.688 252.929 118.188 253.116L118.069 253.125C114.73 253.374 111.405 253.661 109.641 255.173C109.491 255.302 109.348 255.443 109.212 255.595C109.39 255.669 109.568 255.743 109.746 255.815C112.256 256.825 114.902 257.567 117.554 258.309L117.611 258.325C122.009 259.557 126.425 260.793 130.265 263.331C131.387 263.985 133.175 265.487 133.639 266.884C133.774 267.29 133.79 267.689 133.58 268.039C133.385 268.364 133.013 268.637 132.439 268.857C131.498 268.928 130.539 268.735 129.585 268.544L129.529 268.533C128.864 268.4 128.201 268.268 127.546 268.212L127.392 268.951C129.169 269.549 130.809 270.556 131.875 272.183C132.272 272.776 132.612 273.714 132.506 274.49C132.47 274.752 132.382 274.994 132.211 275.186C132.066 275.349 131.863 275.473 131.596 275.549C128.725 275.622 125.861 275.005 123.015 274.391L122.968 274.38C121.64 274.094 120.315 273.808 118.995 273.591C118.004 273.428 116.999 273.301 115.988 273.182L119.163 274.47L119.347 274.546C121.074 275.26 123.315 276.268 124.031 277.643C124.253 278.069 124.307 278.533 124.11 279.035C123.914 279.533 123.492 280.057 122.798 280.621C120.061 282.014 116.936 280.753 113.975 279.558L113.778 279.478C112.419 278.93 111.093 278.397 109.847 278.104C105.383 277.065 101.382 277.567 97.4565 278.067L97.3986 278.074C91.6432 278.806 86.0462 279.517 79.3298 274.998C79.1464 274.874 78.9668 274.75 78.7912 274.625C78.7754 274.843 78.7577 275.061 78.7372 275.277C78.6293 276.416 78.4403 277.566 78.2508 278.719L78.2486 278.733C77.8745 281.01 77.5025 283.301 77.7115 285.55C77.7158 285.597 77.7204 285.643 77.7252 285.69C77.7598 285.725 77.7949 285.759 77.8304 285.792C80.1631 287.974 86.6265 288.318 90.9598 288.513L90.9697 288.513ZM221.498 262.319C221.625 261.219 221.723 260.115 221.792 259.008C222.933 238.847 215.867 219.264 207.603 201.164C202.691 191.635 199.655 181.465 198.381 170.81C196.022 157.569 190.878 145.056 185.607 132.736L184.78 130.806C183.17 126.375 180.718 123.469 177.64 121.505C173.904 119.121 169.233 118.132 164 117.507C163.742 117.476 163.485 117.446 163.229 117.418C163.361 117.639 159.841 114.896 156.849 110.433C154.1 106.912 153.512 106.875 151.472 106.746L151.396 106.741L151.392 106.741C150.669 106.695 149.752 106.637 148.467 106.4C148.153 106.342 147.863 106.282 147.594 106.221C147.75 106.48 147.913 106.735 148.081 106.986C148.581 107.729 149.135 108.437 149.734 109.107C149.747 109.122 149.824 109.19 149.951 109.302C150.958 110.192 155.089 113.846 155.124 115.478C169.231 161.455 169.858 210.287 169.614 258.022L169.598 260.957C169.822 264.939 169.287 268.877 168.752 272.811L168.747 272.847C168.246 276.533 167.748 280.217 167.855 283.927C167.858 284.034 167.861 284.14 167.865 284.247C167.971 284.262 168.076 284.278 168.181 284.293C176.104 285.433 184.141 285.531 192.095 284.687L192.328 284.662C192.337 284.639 192.483 284.486 192.686 284.273C193.133 283.803 193.857 283.042 194.011 282.736C203.114 269.084 202.347 260.983 202.347 260.983L202.347 260.985C202.419 260.977 202.491 260.968 202.563 260.959C202.619 260.953 202.675 260.946 202.731 260.94C208.869 260.228 215.075 261.104 221.024 262.644C221.106 262.665 221.188 262.686 221.27 262.708C221.329 262.723 221.388 262.739 221.447 262.755C221.454 262.691 221.462 262.627 221.47 262.563C221.48 262.482 221.489 262.4 221.498 262.319Z" fill="#E59A66"/>
<path fill-rule="evenodd" clip-rule="evenodd" d="M115.034 89.5241C116.568 88.4859 114.384 97.4949 114.38 98.3617L114.341 98.5504C113.959 100.385 113.286 102.52 111.736 103.697C112.451 109.537 113.34 115.359 114.435 121.138L115.079 121.223C124.632 122.487 134.248 124.225 143.961 123.32C149.194 123.361 152.658 119.785 154.768 115.35C154.625 114.827 154.482 114.306 154.336 113.782C147.69 109.718 142.657 101.47 145.652 93.6843C145.779 93.3514 146.176 93.3286 146.38 93.5017C146.413 93.5047 146.443 93.5317 146.441 93.5681L146.334 95.2148C146.131 98.49 146.063 101.875 147.838 104.821C155.069 103.175 159.565 109.195 162.589 114.893L164.76 115.214C173.07 116.447 181.083 117.906 185.186 126.407L185.748 127.601C191.482 139.816 196.824 152.377 199.952 165.531C201.526 172.529 202.096 179.74 204.406 186.565C209.201 199.238 215.959 211.149 219.624 224.269C221.897 229.003 228.296 264.64 221.983 264.911C219.713 264.232 217.401 263.682 215.064 263.292C215.425 263.566 215.556 264.032 215.488 264.508C214.672 270.22 214.611 276.006 214.615 281.766C215.046 295.716 214.659 325.727 193.622 320.91C192.086 320.346 193.083 317.886 193.022 316.168C192.902 316.174 192.779 316.172 192.658 316.164C191.45 319.419 189.756 322.423 188.695 325.73C187.795 328.572 187.166 331.629 185.912 334.351C172.63 381.523 167.147 431.138 172.34 479.963C172.631 482.886 172.959 485.806 173.325 488.721C173.273 490.587 175.452 498.101 173.5 498.684C173.425 498.831 173.163 499 173.007 499.053C171.828 500.323 169.868 499.852 168.312 500.021C162.813 500.265 157.315 500.491 151.814 500.674C152.143 503.005 151.877 505.371 151.682 507.698C155.694 507.731 159.381 510.17 162.93 511.826C168.2 514.422 173.384 517.198 178.47 520.14C183.165 523.422 193.655 526.591 190.046 534.032C192.738 535.122 188.998 539.684 186.953 539.735C173.642 539.668 160.416 536.653 147.409 534.006C140.018 532.055 131.954 531.314 125.116 527.95C123.175 527.074 123.582 523.579 125.717 523.254C124.132 511.603 130.565 511.763 132.376 502.057C131.323 502.229 130.16 502.132 129.104 501.918C126.658 504.177 127.557 486.398 127.224 484.661C127.158 466.431 128.024 448.162 126.079 429.993L122.774 439.711C115.069 462.391 107.48 485.13 101.44 508.317C101.078 509.716 99.6063 509.884 98.6669 509.273C94.7003 509.157 90.7493 508.785 86.8361 508.153C86.7601 510.007 86.6819 511.862 86.6038 513.717C88.2915 514.625 87.1487 520.348 87.3643 522.284C89.2018 526.467 81.7623 534.612 79.3514 538.045C75.0107 544.101 70.6991 552.578 62.3043 552.859L62.0487 552.865C55.7821 553.018 49.4592 552.652 43.2534 551.758L42.4982 551.635C40.7285 551.339 38.7694 550.908 37.7508 549.335C36.878 547.988 36.9847 546.249 38.0443 545.22C36.6449 540.148 42.0923 537.077 45.1348 533.988C50.8183 528.511 55.9842 522.487 60.4515 515.982L60.7081 515.375C61.5361 513.424 62.5255 511.258 64.067 510.323C65.5369 507.992 66.7939 505.538 68.1212 503.127C64.4958 501.798 60.9261 500.312 57.396 498.749C56.6935 498.436 56.47 497.524 56.5928 496.845L56.6017 496.799C63.4933 461.05 71.7556 425.556 78.1819 389.725C82.2865 356.703 83.9691 323.261 92.5981 290.965C88.4118 290.53 84.2453 289.328 80.1369 288.301C76.8431 287.601 75.1776 285.93 75.8272 282.445C76.0506 279.348 76.6714 276.3 77.007 273.216C76.1301 272.603 75.2743 271.958 74.4414 271.296C72.8975 272.447 71.3041 273.531 69.667 274.543C65.7467 277.363 62.7208 277.802 60.299 273.179C53.2849 262.11 46.5207 250.879 40.1371 239.435C34.2157 228.457 26.8772 217.501 25.3741 204.861C23.1908 182.113 49.9086 145.71 63.2931 127.223C70.6741 118.318 79.6634 109.153 91.3535 106.564C94.9494 106.031 98.7402 105.959 102.168 104.656C102.447 102.991 103.229 101.458 104.997 101.051C106.856 100.64 108.849 100.006 110.722 99.9593C111.146 99.8401 111.645 99.7647 112.093 99.8471C113.374 96.5215 113.563 92.7745 115.034 89.5241ZM43.4192 547.849C43.7396 548.007 44.0711 548.144 44.4105 548.265C44.828 548.323 45.2435 548.376 45.6588 548.423C44.9059 548.254 44.1588 548.064 43.4192 547.849ZM85.0161 515.52C78.8757 517.747 77.1883 507.293 65.1117 511.523C60.392 520.278 54.2817 528.229 47.2978 535.298C44.8154 538.381 37.4679 541.882 41.4274 546.403L42.0339 546.514C48.91 547.764 55.8899 548.757 62.8967 548.191C68.1916 546.732 72.1625 542.492 75.3717 538.217C77.6934 534.105 80.4094 530.235 83.1821 526.419C84.7065 524.522 84.8611 522.107 84.854 519.773C84.9053 518.354 84.9589 516.937 85.0161 515.52ZM153.992 510.388C151.385 509.433 148.711 510.331 146.34 511.503C142.289 513.314 133.515 515.484 129.767 512.596C127.929 515.633 127.313 519.009 127.817 522.512L127.821 522.675C127.861 524.115 128.042 525.281 129.784 525.383L134.669 526.611C151.149 530.744 167.79 534.741 184.753 535.89C189.281 533.066 189.408 529.353 184.595 526.767L183.364 526.013C173.916 520.238 164.248 514.562 153.992 510.388ZM189.844 534.408C189.799 534.486 189.755 534.564 189.709 534.64C189.78 534.675 189.844 534.724 189.905 534.777C189.905 534.65 189.886 534.524 189.844 534.408ZM69.0361 503.458C69.099 504.742 68.4679 506.192 68.0238 507.344C67.7629 508.025 67.4942 508.997 67.0785 509.777C77.4029 506.734 80.5457 515.652 84.2682 513.797L84.3812 513.738V513.736C83.6212 512.001 84.45 509.559 84.9608 507.829C79.539 506.85 74.2155 505.325 69.0361 503.458ZM150.623 500.714L147.646 500.805C143.015 500.946 138.384 501.068 133.751 501.062C134.236 504.389 133.287 509.878 131.132 512.463C131.128 512.465 131.124 512.465 131.122 512.467C137.222 513.39 142.998 510.598 148.431 508.25C148.66 505.7 149.661 503.098 150.623 500.714ZM130.705 510.85C130.52 511.196 130.333 511.543 130.146 511.889C130.228 511.978 130.32 512.06 130.417 512.13C130.36 511.698 130.514 511.271 130.705 510.85ZM139.278 227.857C142.678 245.025 145.362 262.406 146.294 279.911L146.302 280.085C146.393 281.856 146.657 283.831 145.473 285.309C144.243 286.844 142.328 287.039 140.511 287.318C125.276 289.634 109.827 290.417 94.426 289.951C88.741 318.072 85.2638 346.543 83.143 375.139C78.5351 415.998 68.0755 455.939 60.2416 496.251C72.3905 501.562 84.9913 505.33 98.3066 505.853C117.154 436.249 152.439 362.789 154.318 293.16C154.419 293.048 154.661 293.074 154.688 293.243C155.309 297.053 155.045 301.029 154.907 304.869C154.386 316.687 153.07 328.5 151.13 340.162C146.203 369.126 137.104 397.15 127.783 424.951C127.47 426.198 127.943 427.587 127.958 428.862C129.905 450.122 130.105 471.492 130.732 492.818C130.599 495.175 131.342 497.845 130.524 500.059C137.564 499.116 144.639 498.608 151.715 498.018L151.768 497.984C152.06 497.798 152.528 497.602 152.797 497.933C158.775 497.463 164.759 497.033 170.74 496.631C162.258 435.941 168.121 372.676 191.07 315.66C189.616 314.33 190.25 311.365 189.917 309.512C189.61 301.951 189.627 294.217 191.114 286.772L190.736 286.795C186.166 287.055 166.062 287.861 165.51 284.451C164.746 278.675 166.593 272.947 166.97 267.212C167.648 254.254 167.484 241.245 167.395 228.27C163.417 228.801 159.601 228.071 155.668 227.921C150.198 227.873 144.74 228.013 139.278 227.857ZM68.3707 503.221C68.2678 503.667 68.1479 504.115 68.0202 504.562C68.1968 504.162 68.3956 503.778 68.6322 503.44L68.7043 503.34L68.3707 503.221ZM133.43 501.064L133.104 501.067V501.067L133.103 501.254V501.254C133.179 501.381 133.192 501.537 133.097 501.663C133.085 502.237 133.061 502.813 133.017 503.39C133.143 502.614 133.268 501.838 133.43 501.064ZM129.289 500.873L129.306 501.162V501.162C129.723 501.147 130.144 501.164 130.56 501.144C130.779 501.132 131.004 501.094 131.231 501.054C130.577 501.033 129.925 500.982 129.289 500.873ZM203.468 262.474C203.262 262.716 203.038 262.862 202.809 262.936C202.811 268.428 201.702 273.828 198.662 278.583C197.397 280.259 196.683 282.167 196.071 284.155C192.856 293.254 192.259 303.028 193.431 312.556C196.59 307.925 197.846 302.399 198.728 296.951C198.776 296.677 199.23 296.68 199.279 296.951C200.346 302.783 198.511 308.511 196.317 313.901C194.947 314.88 195.273 317.444 195.109 318.953C218.398 322.344 210.299 277.662 213.283 263.901C213.338 263.522 213.66 263.246 214.026 263.13C210.533 262.598 206.993 262.559 203.468 262.474ZM93.793 289.924C93.8218 290.07 93.8466 290.217 93.8654 290.363C93.9076 290.221 93.9495 290.076 93.9912 289.932C93.9266 289.93 93.8599 289.928 93.793 289.924ZM109.533 100.924L109.125 101.03C104.822 102.14 103.429 101.987 103.186 107.18C102.128 114.227 98.2228 120.373 96.4675 127.187C95.7652 129.593 96.5081 134.028 99.837 133.377C100.916 133.046 101.757 134.499 100.941 135.269C98.5296 137.548 96.1891 139.897 93.835 142.231C103.287 174.111 115.566 205.163 130.524 234.872C131.117 236.051 129.338 237.088 128.749 235.908C113.879 206.105 101.512 175.063 91.9138 143.175L91.6238 142.208C91.1997 141.034 96.6204 136.827 97.6069 135.454C87.7098 130.688 101.528 113.999 101.903 105.963C99.0704 107.207 95.8593 106.76 92.8667 107.262C87.126 108.268 82.0873 111.582 77.6084 115.159C59.4158 131.211 47.7899 153.436 36.1604 174.383C28.2404 188.051 24.4221 204.759 32.3699 219.297C41.5919 237.938 52.2898 255.905 63.6 273.347C64.842 274.961 66.7535 273.105 68.062 272.428C75.5844 267.911 82.1073 261.766 87.1239 254.58C74.9621 239.668 64.3683 223.372 56.8762 205.617L56.7729 205.411C55.0918 202.035 53.7626 197.95 56.5668 194.77C66.5242 182.026 75.3801 168.496 83.7141 154.65C83.8 154.511 83.9924 154.633 83.9295 154.778C83.0737 156.714 82.1723 158.635 81.2326 160.539C83.1306 188.691 82.8099 217.393 83.6304 245.724C85.8431 248.651 88.1209 251.529 90.4518 254.361C98.0135 249.154 106.909 245.758 116.044 244.706L116.635 244.647C120.515 244.248 126.924 243.496 127.432 248.53C126.804 254.722 113.996 251.241 109.901 254.753C116.613 257.456 124.305 258.218 130.468 262.293C132.445 263.446 136.321 267.118 132.534 268.523C130.883 268.664 129.176 268.023 127.526 267.882C129.383 268.507 131.092 269.567 132.18 271.228C132.963 272.367 133.535 274.732 131.664 275.219C127.397 275.339 123.147 273.949 118.945 273.257L119.318 273.409C122.382 274.662 127.144 276.914 123.018 280.233C118.887 282.37 113.886 278.735 109.771 277.765C98.6882 275.188 90.4897 282.25 79.1284 274.604C78.8059 277.159 78.3218 279.697 78.128 282.266L78.103 282.411C77.7093 284.756 78.0464 285.603 80.577 286.051C83.6281 286.972 86.8239 287.261 89.9945 287.432C105.253 288.238 120.613 287.666 135.767 285.713C137.948 285.128 143.07 285.68 143.982 283.282C142.274 221.563 116.538 163.488 109.451 102.571C109.335 101.985 109.327 101.388 109.533 100.924ZM152.55 106.199C151.333 106.248 150.2 106.512 148.989 106.634C149.659 108.059 153.198 110.075 152.876 110.783C153.131 110.981 153.39 111.171 153.653 111.355C153.287 110.069 152.917 108.785 152.547 107.499C165.992 140.241 167.839 178.979 169.626 214.696C170.214 232.705 170.534 250.77 169.664 268.768C169.179 273.548 167.898 278.38 168.247 283.207C176.138 284.343 184.144 284.44 192.067 283.599C192.301 282.985 192.566 282.38 192.866 281.786C204.727 267.33 198.437 249.213 192.726 233.554C189.273 233.7 185.799 233.481 182.342 233.523C183.41 236.828 183.686 240.324 184.254 243.742C184.641 246.177 185.135 248.593 185.703 250.991L185.855 251.63C186.069 252.514 186.353 253.469 186.042 254.346C185.737 255.212 184.685 255.561 183.987 254.888C182.729 253.455 182.864 251.319 182.458 249.541L182.383 248.982C181.691 243.879 180.78 238.585 182.045 233.521C180.803 233.255 177.408 234.234 177.23 232.564C177.282 229.808 175.282 223.835 177.509 222.019C178.833 221.009 181.111 221.329 182.664 221.266C184.46 221.194 186.253 221.127 188.047 221.138C173.633 186.313 177.642 175.593 179.104 140.934L179.148 139.876C179.144 139.648 179.512 139.591 179.552 139.821C181.756 154.018 178.818 168.391 180.21 182.633C182.681 209.692 199.831 232.924 202.698 259.853C208.882 259.136 215.138 260.015 221.131 261.567C221.257 260.473 221.354 259.375 221.423 258.278C222.561 238.178 215.506 218.657 207.275 200.629C202.343 191.06 199.294 180.847 198.017 170.168C195.54 156.259 189.979 143.157 184.436 130.237C180.933 120.576 173.359 118.298 163.966 117.176C167.134 122.426 170.283 127.687 173.426 132.952C174.127 134.545 171.978 135.681 171.04 136.661C182.578 142.952 175.841 162.379 176.079 173.265C175.223 183.267 174.9 193.327 173.39 203.26C173.279 203.949 172.223 203.747 172.213 203.102C172.353 188.219 174.128 173.395 174.907 158.536L175.002 157.453C175.609 150.418 176.203 140.268 167.742 138.337C166.601 138.151 166.513 136.454 167.43 135.945C168.65 135.265 169.719 134.436 170.676 133.449C167.443 128.026 164.216 122.599 161.018 117.153L160.868 116.9C158.596 113.046 156.486 108.562 152.55 106.199ZM125.094 248.152C124.16 245.404 115.101 247.194 112.684 247.493C103.767 249.176 94.7937 253.121 88.0026 259.197C87.5833 259.571 87.0879 259.566 86.6972 259.362C83.6554 263.247 80.1426 266.768 76.2902 269.862C76.9954 270.417 77.7197 270.956 78.4649 271.471C78.8215 271.509 79.1437 271.694 79.2885 272.025C89.888 279.703 97.6853 273.714 108.696 275.097C112.807 275.926 116.593 278.54 120.83 278.65C123.939 277.943 121.201 276.644 119.749 276.141C116.461 274.572 113.109 273.141 109.75 271.73L107.063 270.604C105.742 270.05 106.196 268.055 107.671 268.403C110.253 269.012 112.844 269.59 115.436 270.159C120.421 271.176 125.525 272.48 130.562 272.974C129.442 269.862 117.561 266.502 114.107 265.265C112.803 264.649 109.082 264.766 109.506 262.744C109.849 260.862 113.809 263.017 115.129 263.17C120.518 264.537 126.018 265.365 131.509 266.198C125.611 260.282 116.469 259.772 108.936 257.001L108.772 256.964C107.429 256.655 105.543 256.071 106.644 254.533C110.514 248.828 125.741 251.715 125.094 248.152ZM113.949 216.389C116.696 214.135 118.168 218.764 117.994 220.916C118.123 222.702 118.262 224.488 118.379 226.274C118.209 227.671 119.697 232.762 117.706 232.808C109.002 232.366 100.313 232.478 91.6069 231.954C91.5955 233.71 91.5099 235.463 91.5995 237.221C91.552 239.419 92.3159 241.614 91.8699 243.787C91.5976 244.786 90.2386 244.921 89.7079 244.069C88.1178 240.328 89.211 235.503 90.3375 231.72C86.0741 230.932 85.4861 226.926 86.6093 223.351L86.5977 223.157C86.5352 222.054 86.54 220.871 87.0325 219.98C88.3492 218.43 91.0799 219.437 92.8934 219.32C98.4531 218.747 104.115 218.588 109.609 217.568C111.032 217.2 112.482 216.458 113.949 216.389ZM79.3895 164.161C75.0612 172.421 70.0814 180.281 64.78 187.934C63.644 189.568 62.4776 191.181 61.2924 192.783L61.073 193.063C58.7045 196.071 56.2448 198.565 58.4826 202.556C64.3462 216.795 72.1974 230.166 81.2934 242.576C80.7174 216.437 80.2087 190.291 79.3895 164.161ZM188.207 221.557C177.332 223.835 177.129 219.569 178.944 231.644C183.305 231.674 187.664 231.575 192.027 231.646C190.78 228.273 189.488 224.916 188.207 221.557ZM115.211 218.146C109.531 220.119 103.501 219.838 97.5691 220.081C97.5811 221.356 91.5118 220.172 90.3472 220.347L89.8992 220.309C88.9359 220.231 87.7253 220.219 87.7148 221.399C88.0238 223.464 86.8609 225.726 87.5814 227.756C88.5535 230.489 92.7124 230.208 95.0072 230.261C98.7906 230.347 102.574 230.438 106.357 230.537C109.756 230.626 113.166 230.795 116.568 230.82C116.261 228.401 116.177 225.92 115.992 223.503C115.76 221.764 116.095 219.704 115.211 218.146ZM139.093 226.936C139.099 226.966 139.105 226.997 139.112 227.029C139.178 227.01 139.254 227 139.318 226.982C139.244 226.968 139.168 226.953 139.093 226.936Z" fill="black"/>
<path fill-rule="evenodd" clip-rule="evenodd" d="M169.149 59.607C168.428 47.7752 164.589 34.361 153.291 28.5518C128.383 18.5545 95.6336 43.7307 93.8997 69.4501C93.2953 78.254 98.183 87.8742 107.115 90.3219C109.101 92.9532 112.104 94.5601 115.068 95.9548C150.374 114.274 173.18 99.3824 169.149 59.607V59.607Z" fill="white"/>
<path fill-rule="evenodd" clip-rule="evenodd" d="M177.193 52.2472C175.945 48.7815 174.627 45.3424 173.24 41.9299C171.89 38.6087 170.67 35.2158 168.993 32.052C158.977 13.156 140.764 13.156 131.349 15.625C126.467 13.5212 117.322 14.1146 112.238 16.013C104.008 19.0863 93.9751 31.176 90.5448 36.6078C82.9713 48.6008 78.2449 64.5631 83.2757 78.4214C83.9332 80.2327 84.7718 81.9102 85.7159 83.5268C85.1211 84.333 84.4366 85.0965 83.6783 85.8467C81.4248 88.0764 79.1714 90.2327 77.2247 92.7475C75.2902 95.2468 73.6864 97.9045 72.4926 100.835C70.2414 106.361 70.133 112.618 73.1092 117.891C75.6985 122.479 80.2855 125.896 85.4534 126.222C85.7188 126.258 85.9845 126.292 86.2513 126.319C86.936 127.447 87.771 128.486 88.7239 129.391C91.6434 132.168 98.6028 133.593 102.572 133.684C102.776 133.848 102.981 134.011 103.187 134.173C105.615 136.085 108.164 138.014 110.952 139.374C112.841 140.296 115.317 141.067 117.288 140.401C118.182 140.998 119.648 140.873 120.535 140.384C121.991 139.581 123.176 138.135 123.897 136.655C125.645 133.062 125.225 129.13 124.776 125.292C124.281 121.052 123.806 116.81 123.323 112.57C122.944 109.255 122.549 105.884 121.541 102.691C121.02 101.036 120.337 99.4454 119.454 97.9503C119.477 97.8248 119.473 97.6992 119.437 97.5813C119.148 96.6416 118.551 96.149 117.843 95.5099C117.752 95.4281 117.661 95.3444 117.571 95.2588C117.217 94.8555 116.839 94.4808 116.434 94.1631C116.278 94.0052 116.124 93.8455 115.97 93.6857C114.69 92.3447 113.48 90.9352 112.405 89.4249C111.363 87.9602 110.422 86.4309 109.526 84.873C108.615 83.2885 108.012 81.5404 107.103 79.9673C107.025 79.8323 106.827 79.8056 106.717 79.9179C106.435 80.2089 106.254 80.5323 106.289 80.8728L106.148 80.8937C106.095 80.3801 105.621 79.9616 104.978 80.0739C104.016 80.2412 103.225 80.304 102.392 79.9844C102.538 79.0124 102.673 78.0385 102.806 77.0627C103.05 75.2671 103.276 73.4658 103.47 71.6644C103.94 71.7766 104.406 71.9383 104.862 72.1438C105.513 72.4348 106.127 72.8266 106.652 73.3079C107.169 73.7834 107.527 74.4244 108.158 74.7554C108.885 75.1339 109.762 74.5081 109.549 73.6864C109.117 72.0258 106.673 71.0747 105.161 70.7609C104.642 70.6525 104.111 70.6068 103.58 70.6182C103.7 69.4617 103.807 68.3052 103.894 67.1468C103.936 66.599 103.974 66.0511 104.01 65.5014C105.186 65.1457 106.445 65.0392 107.668 65.2066C108.071 65.5281 108.474 65.8457 108.864 66.1672C110.102 67.1905 111.335 68.2196 112.552 69.2677C112.662 69.3609 112.771 69.4541 112.881 69.5492C113.604 70.1712 114.505 69.5549 114.384 68.6742C113.391 61.4574 117.811 55.7167 122.986 51.2695C128.715 46.3448 139.13 45.7713 145.943 37.2411C149.081 37.8797 156.086 39.7766 158.977 44.3837C163.025 50.8396 162.496 56.6241 162.804 63.9474C163.112 71.2764 163.896 78.9211 162.232 86.1474C160.697 92.8107 156.541 98.5039 150.093 101.121C149.934 101.186 149.772 101.249 149.61 101.31C146.276 102.567 142.638 102.923 139.13 102.261C135.248 101.526 132.007 99.7498 128.778 97.5642C128.591 97.4405 128.319 97.6954 128.46 97.8818C132.717 103.524 141.078 105.409 147.71 103.919C148.02 103.849 148.328 103.773 148.634 103.689C147.151 107.956 147.45 112.639 149.382 116.793C150.544 119.293 152.317 121.455 154.475 123.162C156.855 125.041 159.807 126.559 161.458 129.197C162.97 131.615 162.521 134.331 159.932 135.727C159.28 136.081 159.029 137.224 159.675 137.726C159.923 137.917 160.17 138.111 160.423 138.301C161.872 139.395 165.853 141.449 166.498 141.525C172.223 142.204 176.072 138 178.539 133.041C181.436 127.221 180.683 120.128 177.491 114.585C174.931 110.137 169.889 105.755 171.894 100.126C172.609 98.1158 174.072 96.402 175.492 94.8536C177.113 93.0903 178.855 91.4392 180.409 89.6132C181.953 87.8004 183.323 85.8279 184.087 83.5529C185.204 80.2279 184.649 76.6328 183.81 73.3136C182.012 66.1881 179.679 59.1577 177.193 52.2472Z" fill="black"/>
<path fill-rule="evenodd" clip-rule="evenodd" d="M145.247 89.447C143.966 88.9254 142.822 88.0552 141.987 86.9437C141.696 86.5573 141.621 86.1493 141.682 85.776C141.75 85.3564 141.999 84.9761 142.338 84.7209C142.678 84.465 143.104 84.3388 143.516 84.4032C143.873 84.4591 144.229 84.6545 144.511 85.0598L144.57 85.1408C145.067 85.8117 145.714 86.3621 146.452 86.7169C147.163 87.0589 147.959 87.2185 148.782 87.1257C150.349 86.949 151.429 86.103 152.578 84.9541C152.72 84.8091 152.862 84.6595 153.006 84.5075C153.096 84.3697 153.221 84.2812 153.361 84.2347C153.515 84.1831 153.69 84.186 153.85 84.2418C154.005 84.2956 154.143 84.3976 154.236 84.5334C154.324 84.6624 154.374 84.8217 154.357 85.005C154.252 86.1956 153.629 87.2581 152.743 88.0925C151.759 89.0191 150.454 89.6601 149.226 89.885C147.874 90.1326 146.495 89.9552 145.247 89.447V89.447ZM149.865 71.0799C151.304 71.953 153.497 73.9889 151.949 76.1534C150.126 78.0619 147.502 75.8737 146.209 74.884C145.01 74.117 143.663 76.0897 144.775 76.9853C154.119 83.8892 157.911 71.3082 150.593 70.0533C149.787 69.9151 149.488 70.8098 149.865 71.0799ZM133.12 63.0488C133.279 61.0789 136.285 60.6316 136.585 62.5809C136.852 64.3271 136.537 65.9312 135.749 67.5033C134.996 69.0053 133.103 68.3045 132.96 66.9369C132.768 65.1036 133.021 64.2742 133.12 63.0488ZM156.004 62.1767C156.424 61.6289 157.029 61.2549 157.754 61.4663C160.019 62.1269 159.351 65.3364 158.556 66.8986C158.123 67.747 156.726 67.9621 156.095 67.2152C155.065 65.997 154.573 63.5643 155.881 62.3645C155.917 62.3025 155.956 62.2399 156.004 62.1767ZM135.717 54.429L136.075 54.3665C137.182 54.1755 138.558 53.9919 139.341 54.88C139.757 55.351 139.9 56.2264 139.341 56.6772C138.359 57.4704 137.274 57.163 136.097 57.2302C135.127 57.2857 134.195 57.4459 133.261 57.7124C131.212 58.2969 129.542 59.364 127.791 60.5357C127.562 60.6894 127.327 60.3963 127.437 60.1819C128.447 58.2069 130.405 56.5846 132.367 55.5956C133.413 55.0678 134.559 54.6299 135.717 54.429ZM153.939 53.5443L154.213 53.6003C157.194 54.222 161.066 55.464 162.477 58.3856C162.531 58.7987 162.474 58.8873 162.428 58.9451L162.413 58.9644C162.375 59.0138 162.344 59.0819 162.165 59.1381C162.115 59.1262 162.065 59.1137 162.014 59.1004C161.367 58.9312 160.855 58.6981 160.36 58.4562L159.822 58.1921C159.199 57.887 158.57 57.5931 157.904 57.3761C156.481 56.9131 155.018 56.587 153.533 56.4128C153.211 56.3751 152.901 56.2667 152.656 56.0808C152.424 55.9044 152.247 55.6601 152.166 55.3354C152.061 54.9152 152.091 54.5971 152.317 54.218C152.487 53.9333 152.73 53.736 153.009 53.6227C153.293 53.5072 153.617 53.48 153.939 53.5443Z" fill="black"/>
</g>
<defs>
<clipPath id="clip0_808_113">
<rect width="235" height="600" fill="white"/>
</clipPath>
</defs>
</svg>
