<svg width="2174" height="4341" viewBox="0 0 2174 4341" fill="none" xmlns="http://www.w3.org/2000/svg">
<path fill-rule="evenodd" clip-rule="evenodd" d="M507.305 1509.17C471.907 1550.57 475.036 1562.08 493.896 1603.88C535.563 1700.87 595.309 1799.46 663.13 1889.39C658.653 1687.62 654.802 1484.76 648.18 1281.15C607.853 1359.82 564.907 1430.88 507.305 1509.17M500.626 4002.89C478.345 4000.74 321.532 4006.53 363.498 3960.81C350.544 3932.69 386.735 3908.96 409.036 3887.57C429.902 3867.66 450.465 3845.54 471.891 3819.96C491.844 3796.23 514.336 3768.19 528.878 3735.46C532.097 3730.33 535.366 3726.74 538.604 3724.78L540.471 3723.65L541.634 3721.8C553.906 3702.21 564.039 3681.98 575.191 3662.02C547.917 3652.17 523.137 3642.27 492.246 3628.6C535.835 3371.91 601.164 3121.83 643.405 2864.38C669.115 2640.35 682.918 2414.22 741.752 2193.58L749.279 2194.16L753.473 2179.7C747.294 2179.54 734.776 2179.12 728.578 2178.88L730.029 2186.28C701.982 2183.03 674.499 2175.04 647.233 2168.26C633.318 2166.36 619.367 2156.41 624.374 2139.82C625.985 2115.76 630.963 2092.29 633.306 2068.23C624.432 2062.17 615.279 2055.26 606.511 2048.17C583.324 2059.1 555.3 2094.41 529.947 2085.43C470.697 2005.9 420.971 1910.3 375.973 1833.93C267.29 1657.3 232.794 1546.9 344.887 1362.74C441.799 1208.45 546.337 963.238 740.615 924.518C762.427 920.446 785.283 920.275 806.245 910.337C807.321 896.087 814.441 887.901 819.653 887.785C832.312 885.006 846.213 880.534 858.575 880.421C862.933 878.601 868.253 880.096 872.44 880.918C884.9 855.91 883.786 823.984 897.439 800.54C897.935 782.778 903.349 763.153 958.092 759.583C995.355 756.472 1048.13 753.475 1077.92 769.758C1098.76 786.537 1098.98 824.128 1096.36 850.614C1093.49 870.066 1094.78 892.689 1110.01 915.535C1153.43 902.132 1183.7 930.463 1210.88 983.316C1324.65 998.806 1349.19 1007.6 1393.33 1120.3C1414.38 1169.17 1436.3 1221.39 1452.71 1274.89C1474.69 1340.29 1476.62 1408.76 1497.99 1474.63C1556.01 1619.8 1615.02 1713.48 1633.61 1882.49C1642.68 1957.11 1637.47 1994.11 1628.84 2005.32C1604.32 1998.23 1572.68 1992.8 1546.93 1989.78L1574.49 2010.74C1551.14 2116.63 1618.4 2418.6 1436.03 2395.4C1434.41 2391.46 1437.38 2369.78 1438.17 2360.79C1433.18 2361.14 1423.96 2361.46 1419.05 2360.84C1410.35 2385.94 1397.3 2408.49 1389.05 2434.01C1384.98 2449.57 1379.83 2465.22 1374.79 2480.35C1259.94 2867.14 1237.2 3239.51 1288.45 3627.83L1286.13 3628.67L1285.19 3630.33L1283.79 3630.86C1280.17 3635.69 1275.04 3635.9 1266.86 3635.91C1216.63 3637.68 1172.49 3639.94 1131.56 3641.08C1135.9 3662.82 1133.12 3685.7 1131.21 3707.81C1155.03 3706.14 1176.89 3715.81 1198.66 3727.42C1240.27 3747.85 1281.71 3769.3 1321.99 3792.76C1361.99 3818.35 1426.67 3840.24 1394.56 3886.24L1403.85 3889.89C1404.16 3890.01 1404.36 3890.12 1404.48 3890.19C1405.57 3894.1 1392.99 3910.27 1389.27 3910.09C1301.31 3914.2 1226.3 3893.66 1113.79 3872.14C1088.03 3862.8 958.291 3846.91 957.748 3822.37C958.16 3814.73 966.063 3815.25 971.576 3814.29C955.047 3730.82 1010.92 3724.08 1018.92 3648.34C1007.86 3650.45 995.897 3652.26 984.567 3649.15C974.624 3487.52 990.598 3322.07 972.936 3158.86L954.978 3156.87C894.617 3334.47 832.028 3516.18 783.96 3700.65C783.044 3704.66 778.553 3701.92 776.499 3700.45C745.082 3699.71 713.655 3696.35 682.848 3691.06C682.108 3709.21 681.329 3727.69 680.565 3745.81L685.313 3748.36C688.375 3752.62 687.087 3772.58 686.532 3781.16C685.973 3789.94 685.51 3796.3 686.287 3802.25C696.196 3821.79 662.316 3864.12 644.397 3887.66C605.356 3938.19 573.016 4013.02 500.626 4002.89" fill="white"/>
<path fill-rule="evenodd" clip-rule="evenodd" d="M1279.03 1756.17C1279.03 1756.17 1448.6 2014.81 1435.21 2157.97C1434.41 2166.45 1420.74 2297.9 1420.67 2307.02C1420.21 2366.06 1445.01 2313.4 1427.28 2361.1C1412.8 2400.05 1313.84 2631.15 1279.28 2967.87C1259.84 3157.24 1285.88 3633.99 1285.88 3633.99L988.555 3652.45L962.126 3140.66C958.248 3146.89 778.443 3693.35 778.443 3693.35L638.368 3678.84L494.329 3623.44C494.329 3623.44 566.243 3323.09 638.368 2905.87C672.516 2708.34 724.773 2165.47 724.773 2165.47C722.378 2131.24 1044.06 2139.5 1044.06 2139.5C1044.06 2139.5 934.184 1790.56 1013.66 1742.47C1064.03 1712 1279.03 1756.17 1279.03 1756.17Z" fill="#C2BED8"/>
<path fill-rule="evenodd" clip-rule="evenodd" d="M689.092 3819.51L687.555 3821.87C685.584 3824.91 683.791 3827.77 682.028 3830.71L680.998 3832.44L677.514 3837.64L675.253 3841.04C672.077 3845.85 668.677 3851.09 664.109 3858.19L651.536 3877.77L646.27 3885.9C633.067 3906.22 624.506 3918.63 614.459 3931.82L611.864 3935.2L610.511 3936.89L609.166 3938.54C585.348 3967.61 559.606 3987.42 530.425 3995.78L529.451 3996.05L528.541 3996.3L527.599 3996.38C486.824 3999.66 446.036 3996.15 390.725 3986.46L387.174 3985.83L382.882 3985.06L373.537 3983.36L371.347 3981.16C358.552 3968.31 356.795 3953.49 364.648 3938.72C369.792 3929.04 377.694 3920.67 391.874 3908.35L402.937 3898.79C413.127 3889.94 414.815 3888.2 417.339 3884.74L418.377 3883.3L418.866 3882.79C464.648 3835.04 502.891 3789.04 532.407 3734.88L533.553 3732.77L535.279 3729.58L538.667 3728.25C566.4 3717.43 597.46 3718.64 623.463 3731.86L624.319 3732.3L625.147 3732.74L626.004 3733.21C630.377 3735.65 634.04 3738.3 640.399 3743.31L643.964 3746.13L645.636 3747.43C651.161 3751.69 654.363 3753.73 658.242 3755.44C665.755 3758.73 674.674 3758.18 677.683 3754.95L677.847 3754.76L677.989 3754.58L681.976 3743.47L689.092 3819.51ZM1003.15 3713.72C1004.46 3717.8 999.459 3733.95 1003.09 3739.51C1006.36 3744.53 1017.88 3743.15 1025.87 3743.06L1027.49 3743.04L1029.15 3742.99C1031.76 3742.9 1034.52 3742.74 1038.13 3742.49L1048.71 3741.71L1049.59 3741.66C1049.88 3741.64 1050.16 3741.63 1050.45 3741.61L1052.11 3741.53L1053.15 3741.49L1053.54 3741.46C1066.63 3740.44 1077.39 3733.3 1098.39 3725.03L1108.17 3721.15C1117.98 3717.29 1123.49 3715.28 1130.12 3713.24L1131.08 3712.95L1131.59 3712.85C1150.29 3709.21 1173.67 3716.26 1205.41 3732.1L1207.42 3733.11L1209.58 3734.2C1214.65 3736.79 1219.99 3739.63 1226 3742.9L1235.3 3748.01C1241.77 3751.58 1249.77 3756.01 1252.59 3757.55L1255.28 3759.01L1257.72 3760.32C1263.81 3763.57 1268.67 3766.03 1272.89 3767.95L1274.28 3768.58L1274.61 3768.76C1310.99 3788.47 1344.4 3807.93 1375.77 3827.86L1378.24 3829.43L1379.07 3829.88C1416.83 3850.83 1417.35 3884.65 1381.79 3908.15L1380.7 3908.86L1379.57 3909.58L1376.83 3911.29L1373.61 3911.05C1318.71 3907.11 1261.94 3899.03 1199.58 3886.81L1193.46 3885.6C1146.77 3876.31 1100.69 3865.63 1035.34 3849.35L1022.43 3846.13L1001.4 3840.84L1000.86 3840.79C977.916 3838.42 965.204 3821.22 965.223 3797.49L965.236 3796.14L965.232 3795.02C965.207 3770.12 976.044 3747.16 985.279 3728.56L985.761 3727.61L986.252 3726.66L1003.15 3713.72Z" fill="white"/>
<path fill-rule="evenodd" clip-rule="evenodd" d="M721.379 2180.99C726.981 2181.24 732.046 2181.47 736.272 2181.76L738.134 2181.89L738.199 2182.41C738.951 2182.43 739.708 2182.45 740.464 2182.47C836.489 2185.25 932.89 2182.02 1028.2 2169.63L1034.14 2168.85C1037.06 2168.48 1040.01 2168.12 1042.97 2167.76L1043.02 2167.75C1054.29 2166.39 1065.71 2165 1076.61 2162.37C1083.65 2161.38 1087.77 2157.67 1090.1 2152.76C1092.99 2146.66 1092.9 2138.44 1092.03 2131.39L1091.9 2130.42C1080.78 1896 1023.3 1669.29 965.811 1442.62L965.767 1442.45C918.762 1257.11 871.764 1071.8 850.218 882.314L844.492 883.759L835.017 886.116C825.787 888.461 819.256 890.576 814.553 894.351C810.28 897.781 807.394 902.541 805.534 910.191C804.445 914.903 803.762 920.767 803.357 928.178C799.195 955.793 798.684 939.843 799.646 920.67C799.713 919.325 799.731 917.939 799.703 916.515C798.503 917.07 797.282 917.595 796.039 918.083C783.873 922.859 770.869 923.567 757.877 924.275L757.457 924.297C749.584 924.726 741.715 925.16 733.991 926.422C694.607 933.325 659.903 955.668 629.005 980.137L626.96 981.763C508.949 1085.89 430.669 1227.38 355.051 1364.17C351.302 1370.95 347.56 1377.72 343.819 1384.47L338.994 1393.18C283.633 1488.74 257.176 1605.5 312.643 1707.1C376.629 1836.45 450.847 1961.13 529.443 2082.35C532.987 2086.95 537.173 2088.22 541.587 2087.73C546.91 2087.13 552.718 2083.56 558.067 2080.14L558.166 2080.07C560.103 2078.84 561.977 2077.64 563.836 2076.63C616.308 2045.11 661.808 2002.24 696.801 1952.11C697.173 1951.58 697.543 1951.04 697.912 1950.51C697.526 1949.99 697.118 1949.48 696.711 1948.97L696.7 1948.96C605.758 1835 521.121 1710.54 473.923 1571.91C471.658 1550.05 491.534 1526.07 509.787 1504.06C510.233 1503.52 510.677 1502.99 511.121 1502.45C520.214 1491.48 528.876 1481 534.478 1471.53C571.728 1420.19 606.595 1367.1 639.996 1313C640.859 1311.38 641.72 1309.75 642.579 1308.12C642.721 1307.84 642.864 1307.57 643.007 1307.3C642.945 1307.03 642.893 1306.76 642.851 1306.49C642.547 1304.53 642.746 1302.5 643.564 1300.93C644.123 1299.86 645.006 1299.03 646.287 1298.8C646.695 1298.73 647.087 1298.73 647.46 1298.79L647.554 1298.61L647.624 1300.77L652.972 1291.84L656.689 1285.69C657.352 1284.59 657.997 1283.53 658.623 1282.51C657.126 1285.59 655.472 1288.99 653.666 1292.71L651.115 1297.94C659.817 1427.05 661.809 1557.81 663.798 1688.4L663.799 1688.47C664.821 1755.53 665.841 1822.54 667.768 1889.26L667.792 1890.09C667.961 1890.33 668.131 1890.55 668.3 1890.77C683.664 1911.1 699.478 1931.09 715.663 1950.76C716.178 1951.38 716.693 1952.01 717.208 1952.63C717.581 1952.38 717.955 1952.12 718.329 1951.86C718.621 1951.66 718.913 1951.46 719.206 1951.25C771.271 1915.39 832.518 1892 895.421 1884.75L897.818 1884.51L904.576 1883.82C920.166 1882.25 939.988 1880.6 954.256 1886.21C959.118 1888.13 963.313 1890.9 966.358 1894.92C969.051 1898.47 970.827 1902.98 971.44 1908.64C970.396 1918.01 964.779 1923.74 956.66 1927.45C944.654 1932.95 927.414 1934.23 910.082 1935.53L909.256 1935.59C886.108 1937.32 863.053 1939.31 850.824 1949.8C849.787 1950.69 848.798 1951.67 847.854 1952.72C849.084 1953.24 850.32 1953.75 851.558 1954.25C868.957 1961.25 887.298 1966.4 905.687 1971.55L906.084 1971.66C936.576 1980.19 967.194 1988.77 993.812 2006.37C1001.59 2010.9 1013.99 2021.32 1017.21 2031C1018.14 2033.82 1018.25 2036.59 1016.8 2039.02C1015.45 2041.27 1012.87 2043.16 1008.89 2044.69C1002.36 2045.18 995.716 2043.84 989.099 2042.52L988.711 2042.44C984.101 2041.52 979.505 2040.6 974.968 2040.21L973.897 2045.34C986.215 2049.49 997.587 2056.47 1004.98 2067.75C1007.73 2071.86 1010.09 2078.37 1009.35 2083.75C1009.11 2085.56 1008.49 2087.24 1007.31 2088.58C1006.3 2089.71 1004.9 2090.56 1003.04 2091.09C983.136 2091.6 963.284 2087.32 943.549 2083.06L943.225 2082.99C934.016 2081 924.832 2079.02 915.68 2077.52C908.812 2076.39 901.841 2075.5 894.833 2074.68L916.843 2083.61L918.12 2084.14C930.096 2089.09 945.628 2096.08 950.594 2105.61C952.132 2108.57 952.506 2111.79 951.14 2115.27C949.786 2118.72 946.855 2122.36 942.046 2126.26C923.072 2135.92 901.406 2127.18 880.877 2118.89C880.42 2118.71 879.965 2118.52 879.51 2118.34C870.09 2114.54 860.894 2110.84 852.257 2108.81C821.302 2101.61 793.564 2105.09 766.35 2108.55L765.948 2108.6C726.046 2113.68 687.241 2118.61 640.675 2087.27C639.403 2086.41 638.159 2085.55 636.941 2084.69C636.831 2086.2 636.708 2087.71 636.566 2089.21C635.818 2097.11 634.508 2105.08 633.194 2113.08L633.179 2113.17C630.585 2128.96 628.006 2144.85 629.455 2160.44C629.485 2160.77 629.517 2161.09 629.55 2161.41C629.79 2161.66 630.033 2161.9 630.279 2162.13C646.452 2177.26 691.264 2179.64 721.307 2180.99L721.379 2180.99ZM1626.35 1999.35C1627.23 1991.72 1627.9 1984.06 1628.38 1976.39C1636.29 1836.58 1587.31 1700.78 1530.01 1575.27C1495.95 1509.19 1474.91 1438.67 1466.07 1364.78C1449.72 1272.96 1414.05 1186.19 1377.51 1100.75L1371.77 1087.37C1360.62 1056.64 1343.61 1036.49 1322.27 1022.88C1296.37 1006.34 1263.98 999.485 1227.71 995.15C1225.92 994.936 1224.14 994.73 1222.36 994.534C1223.28 996.064 1198.87 977.041 1178.12 946.092C1159.06 921.677 1154.99 921.419 1140.85 920.527L1140.32 920.493L1140.29 920.491C1135.28 920.174 1128.92 919.771 1120.01 918.13C1117.83 917.729 1115.82 917.312 1113.96 916.891C1115.04 918.685 1116.17 920.455 1117.34 922.195C1120.8 927.347 1124.64 932.256 1128.8 936.898C1128.89 937.004 1129.42 937.477 1130.3 938.252C1137.28 944.427 1165.92 969.762 1166.17 981.079C1263.97 1299.91 1268.32 1638.53 1266.63 1969.55L1266.52 1989.91C1268.07 2017.52 1264.36 2044.83 1260.65 2072.11L1260.62 2072.35C1257.15 2097.92 1253.69 2123.46 1254.43 2149.19C1254.45 2149.93 1254.48 2150.67 1254.5 2151.41C1255.23 2151.52 1255.96 2151.62 1256.69 2151.73C1311.62 2159.63 1367.34 2160.31 1422.49 2154.46C1423.03 2154.4 1423.57 2154.34 1424.11 2154.29C1424.17 2154.13 1425.18 2153.07 1426.59 2151.59C1429.69 2148.33 1434.71 2143.06 1435.78 2140.93C1498.89 2046.26 1493.57 1990.09 1493.57 1990.09L1493.57 1990.1C1493.93 1990.06 1494.29 1990.01 1494.65 1989.97C1495.18 1989.91 1495.7 1989.85 1496.23 1989.78C1538.79 1984.85 1581.82 1990.93 1623.06 2001.6C1624.04 2001.86 1625.01 2002.11 1625.99 2002.37C1626.11 2001.36 1626.23 2000.36 1626.35 1999.35Z" fill="#A79FC9"/>
<path fill-rule="evenodd" clip-rule="evenodd" d="M888.214 801.101C898.849 793.902 883.706 856.375 883.679 862.386L883.412 863.694C880.761 876.419 876.094 891.223 865.352 899.384C870.306 939.883 876.472 980.252 884.062 1020.33L888.527 1020.91C954.759 1029.68 1021.43 1041.74 1088.77 1035.46C1125.05 1035.74 1149.07 1010.95 1163.7 980.189C1162.71 976.562 1161.72 972.949 1160.7 969.321C1114.62 941.137 1079.73 883.94 1100.49 829.95C1101.38 827.642 1104.12 827.484 1105.54 828.684C1105.77 828.705 1105.98 828.892 1105.96 829.144L1105.23 840.564C1103.82 863.275 1103.35 886.751 1115.65 907.181C1165.78 895.762 1196.96 937.512 1217.92 977.025L1232.98 979.25C1290.58 987.798 1346.14 997.917 1374.59 1056.87L1378.49 1065.14C1418.24 1149.85 1455.28 1236.96 1476.96 1328.17C1487.88 1376.7 1491.83 1426.7 1507.84 1474.03C1541.09 1561.92 1587.94 1644.51 1613.35 1735.49C1629.11 1768.32 1673.48 2015.44 1629.71 2017.32C1613.97 2012.61 1597.94 2008.8 1581.74 2006.09C1584.24 2008 1585.15 2011.23 1584.67 2014.52C1579.02 2054.14 1578.59 2094.26 1578.62 2134.21C1581.61 2230.94 1578.93 2439.05 1433.07 2405.65C1422.43 2401.74 1429.34 2384.68 1428.91 2372.77C1428.08 2372.81 1427.23 2372.79 1426.39 2372.74C1418.02 2395.31 1406.28 2416.14 1398.92 2439.07C1392.68 2458.78 1388.32 2479.98 1379.62 2498.85C1287.53 2825.97 1249.52 3170.03 1285.52 3508.6C1287.54 3528.87 1289.82 3549.12 1292.36 3569.33C1292 3582.27 1307.1 3634.38 1293.57 3638.42C1293.05 3639.44 1291.23 3640.62 1290.15 3640.98C1281.98 3649.79 1268.39 3646.52 1257.6 3647.69C1219.48 3649.39 1181.36 3650.96 1143.21 3652.22C1145.5 3668.38 1143.65 3684.79 1142.3 3700.93C1170.12 3701.16 1195.68 3718.07 1220.28 3729.56C1256.82 3747.56 1292.76 3766.8 1328.02 3787.21C1360.58 3809.97 1433.31 3831.94 1408.29 3883.54C1426.94 3891.1 1401.01 3922.74 1386.84 3923.09C1294.56 3922.63 1202.86 3901.72 1112.67 3883.36C1061.43 3869.84 1005.52 3864.7 958.117 3841.37C944.661 3835.29 947.479 3811.06 962.281 3808.8C951.29 3728.01 995.891 3729.12 1008.45 3661.81C1001.15 3663 993.084 3662.33 985.762 3660.85C968.808 3676.51 975.037 3553.22 972.732 3541.18C972.272 3414.76 978.275 3288.07 964.792 3162.09L941.878 3229.47C888.46 3386.75 835.842 3544.43 793.965 3705.22C791.455 3714.93 781.253 3716.09 774.739 3711.85C747.239 3711.05 719.846 3708.46 692.715 3704.08C692.188 3716.95 691.646 3729.81 691.104 3742.67C702.806 3748.96 694.882 3788.65 696.377 3802.08C709.117 3831.08 657.538 3887.57 640.823 3911.37C610.728 3953.37 580.835 4012.15 522.633 4014.1L520.861 4014.14C477.414 4015.2 433.576 4012.66 390.55 4006.47L385.314 4005.61C373.045 4003.56 359.462 4000.57 352.4 3989.66C346.349 3980.32 347.089 3968.27 354.435 3961.13C344.733 3925.96 382.5 3904.66 403.594 3883.24C442.999 3845.26 478.815 3803.49 509.787 3758.38L511.566 3754.17C517.307 3740.64 524.166 3725.61 534.854 3719.14C545.045 3702.97 553.76 3685.95 562.962 3669.23C537.827 3660.01 513.077 3649.71 488.603 3638.87C483.733 3636.7 482.183 3630.38 483.034 3625.67L483.096 3625.35C530.876 3377.45 588.16 3131.32 632.714 2882.84C661.172 2653.85 672.838 2421.95 732.664 2197.99C703.64 2194.98 674.753 2186.65 646.269 2179.52C623.432 2174.67 611.885 2163.08 616.389 2138.91C617.938 2117.43 622.242 2096.3 624.569 2074.91C618.489 2070.66 612.555 2066.19 606.781 2061.6C596.077 2069.58 585.029 2077.1 573.679 2084.12C546.5 2103.67 525.52 2106.72 508.73 2074.66C460.1 1997.9 413.203 1920.02 368.945 1840.66C327.891 1764.53 277.012 1688.56 266.591 1600.91C251.454 1443.16 436.692 1190.72 529.489 1062.52C580.662 1000.77 642.986 937.22 724.035 919.263C748.966 915.571 775.248 915.069 799.015 906.033C800.945 894.489 806.37 883.86 818.625 881.035C831.516 878.185 845.336 873.785 858.322 873.465C861.257 872.637 864.72 872.115 867.822 872.686C876.708 849.625 878.015 823.641 888.214 801.101ZM391.7 3979.36C393.921 3980.45 396.219 3981.4 398.573 3982.25C401.467 3982.64 404.348 3983.01 407.227 3983.34C402.007 3982.17 396.827 3980.85 391.7 3979.36ZM680.097 3755.17C637.524 3770.62 625.826 3698.12 542.097 3727.46C509.375 3788.17 467.011 3843.3 418.59 3892.33C401.38 3913.7 350.439 3937.98 377.891 3969.33L382.095 3970.1C429.769 3978.77 478.161 3985.65 526.74 3981.73C563.45 3971.61 590.981 3942.21 613.231 3912.56C629.327 3884.05 648.158 3857.21 667.381 3830.75C677.95 3817.6 679.022 3800.85 678.973 3784.66C679.329 3774.82 679.7 3765 680.097 3755.17ZM1158.32 3719.58C1140.24 3712.96 1121.7 3719.19 1105.26 3727.32C1077.18 3739.87 1016.35 3754.92 990.362 3734.9C977.62 3755.96 973.348 3779.37 976.843 3803.66L976.87 3804.79C977.143 3814.77 978.401 3822.86 990.479 3823.57L1024.35 3832.08C1138.6 3860.74 1253.98 3888.46 1371.59 3896.43C1402.98 3876.84 1403.86 3851.1 1370.49 3833.17L1361.96 3827.94C1296.45 3787.89 1229.42 3748.53 1158.32 3719.58ZM1406.89 3886.15C1406.57 3886.7 1406.26 3887.24 1405.95 3887.76C1406.44 3888 1406.89 3888.34 1407.31 3888.71C1407.31 3887.83 1407.18 3886.96 1406.89 3886.15ZM569.305 3671.53C569.742 3680.43 565.366 3690.49 562.287 3698.48C560.478 3703.2 558.615 3709.94 555.733 3715.35C627.313 3694.24 649.103 3756.08 674.911 3743.23L675.695 3742.81V3742.8C670.426 3730.77 676.172 3713.84 679.713 3701.84C642.123 3695.05 605.215 3684.48 569.305 3671.53ZM1134.96 3652.5L1114.32 3653.13C1082.21 3654.11 1050.11 3654.96 1017.98 3654.91C1021.34 3677.98 1014.76 3716.05 999.823 3733.97C999.796 3733.99 999.771 3733.99 999.757 3734C1042.04 3740.4 1082.09 3721.04 1119.76 3704.76C1121.35 3687.07 1128.29 3669.03 1134.96 3652.5ZM996.863 3722.79C995.582 3725.19 994.285 3727.59 992.992 3729.99C993.56 3730.61 994.194 3731.18 994.868 3731.67C994.476 3728.67 995.543 3725.71 996.863 3722.79ZM1056.3 1760.37C1079.88 1879.42 1098.48 1999.95 1104.95 2121.34L1105 2122.54C1105.63 2134.83 1107.46 2148.52 1099.25 2158.78C1090.73 2169.42 1077.45 2170.77 1064.85 2172.71C959.227 2188.77 852.115 2194.19 745.337 2190.96C705.922 2385.97 681.814 2583.4 667.111 2781.7C635.163 3065.03 562.645 3342.01 508.332 3621.55C592.562 3658.38 679.925 3684.51 772.242 3688.14C902.912 3205.46 1147.55 2696.06 1160.58 2213.21C1161.28 2212.44 1162.96 2212.62 1163.14 2213.79C1167.45 2240.21 1165.61 2267.78 1164.66 2294.41C1161.05 2376.37 1151.92 2458.28 1138.47 2539.15C1104.32 2740 1041.23 2934.34 976.603 3127.12C974.438 3135.77 977.713 3145.4 977.821 3154.24C991.32 3301.67 992.702 3449.86 997.05 3597.74C996.133 3614.09 1001.28 3632.6 995.607 3647.96C1044.42 3641.42 1093.47 3637.89 1142.53 3633.8L1142.89 3633.57C1144.92 3632.28 1148.17 3630.92 1150.03 3633.21C1191.48 3629.95 1232.97 3626.97 1274.43 3624.19C1215.63 3203.33 1256.27 2764.62 1415.38 2369.24C1405.31 2360.02 1409.7 2339.46 1407.39 2326.61C1405.26 2274.18 1405.38 2220.54 1415.69 2168.92L1413.06 2169.08C1381.39 2170.88 1242 2176.47 1238.18 2152.83C1232.87 2112.77 1245.68 2073.05 1248.3 2033.28C1253 1943.42 1251.86 1853.21 1251.24 1763.23C1223.66 1766.92 1197.21 1761.86 1169.93 1760.82C1132.01 1760.48 1094.17 1761.45 1056.3 1760.37ZM564.692 3669.88C563.979 3672.98 563.147 3676.08 562.262 3679.18C563.486 3676.41 564.864 3673.75 566.505 3671.41L567.005 3670.71L564.692 3669.88ZM1015.76 3654.92L1013.5 3654.95V3654.95L1013.49 3656.24V3656.24C1014.02 3657.13 1014.11 3658.21 1013.45 3659.08C1013.37 3663.06 1013.2 3667.06 1012.89 3671.05C1013.76 3665.67 1014.64 3660.29 1015.76 3654.92ZM987.045 3653.61L987.164 3655.61V3655.61C990.057 3655.5 992.977 3655.62 995.859 3655.48C997.378 3655.4 998.938 3655.14 1000.51 3654.86C995.978 3654.71 991.459 3654.36 987.045 3653.61ZM1501.34 2000.42C1499.92 2002.1 1498.36 2003.11 1496.77 2003.63C1496.78 2041.71 1489.09 2079.16 1468.02 2112.13C1459.25 2123.76 1454.3 2136.98 1450.06 2150.77C1427.77 2213.87 1423.63 2281.64 1431.75 2347.72C1453.66 2315.61 1462.36 2277.29 1468.48 2239.5C1468.81 2237.6 1471.95 2237.63 1472.3 2239.5C1479.7 2279.94 1466.98 2319.67 1451.76 2357.04C1442.26 2363.83 1444.52 2381.61 1443.38 2392.08C1604.85 2415.59 1548.7 2105.74 1569.39 2010.32C1569.77 2007.69 1572 2005.78 1574.54 2004.98C1550.32 2001.28 1525.78 2001.01 1501.34 2000.42ZM740.948 2190.78C741.148 2191.79 741.32 2192.81 741.451 2193.82C741.743 2192.83 742.033 2191.83 742.323 2190.83C741.875 2190.81 741.412 2190.8 740.948 2190.78ZM850.074 880.152L847.248 880.892C817.412 888.584 807.757 887.527 806.069 923.536C798.734 972.401 771.66 1015.02 759.491 1062.27C754.622 1078.96 759.773 1109.71 782.852 1105.2C790.331 1102.9 796.16 1112.98 790.503 1118.32C773.788 1134.12 757.56 1150.41 741.239 1166.6C806.774 1387.67 891.905 1603 995.607 1809.02C999.718 1817.19 987.389 1824.38 983.305 1816.2C880.21 1609.53 794.468 1394.27 727.92 1173.14L725.909 1166.44C722.969 1158.3 760.551 1129.12 767.391 1119.6C698.773 1086.55 794.573 970.825 797.176 915.095C777.537 923.724 755.274 920.627 734.526 924.103C694.725 931.081 659.791 954.06 628.738 978.866C502.606 1090.18 422.002 1244.3 341.374 1389.56C286.463 1484.33 259.99 1600.2 315.094 1701.01C379.031 1830.28 453.201 1954.87 531.616 2075.82C540.227 2087.02 553.48 2074.15 562.551 2069.45C614.705 2038.13 659.93 1995.51 694.711 1945.68C610.391 1842.28 536.943 1729.27 484.999 1606.15L484.283 1604.72C472.628 1581.31 463.412 1552.98 482.854 1530.93C551.89 1442.55 613.289 1348.73 671.07 1252.72C671.666 1251.76 672.999 1252.6 672.563 1253.6C666.63 1267.03 660.38 1280.35 653.866 1293.56C667.025 1488.78 664.801 1687.81 670.49 1884.27C685.83 1904.57 701.623 1924.52 717.783 1944.17C770.21 1908.06 831.881 1884.51 895.218 1877.21L899.312 1876.8C926.216 1874.03 970.649 1868.82 974.175 1903.73C969.815 1946.67 881.016 1922.53 852.625 1946.88C899.165 1965.63 952.495 1970.91 995.224 1999.17C1008.93 2007.16 1035.8 2032.63 1009.55 2042.37C998.095 2043.35 986.265 2038.9 974.821 2037.92C987.702 2042.26 999.547 2049.61 1007.09 2061.13C1012.52 2069.03 1016.49 2085.42 1003.51 2088.8C973.927 2089.64 944.466 2080 915.328 2075.2L917.917 2076.25C939.159 2084.94 972.175 2100.56 943.568 2123.57C914.928 2138.39 880.254 2113.18 851.728 2106.46C774.887 2088.59 718.046 2137.56 639.277 2084.54C637.041 2102.26 633.684 2119.85 632.34 2137.67L632.167 2138.68C629.438 2154.94 631.775 2160.81 649.32 2163.92C670.474 2170.3 692.631 2172.31 714.613 2173.5C820.401 2179.08 926.892 2175.12 1031.96 2161.58C1047.08 2157.52 1082.59 2161.34 1088.92 2144.72C1077.07 1716.73 898.639 1314.01 849.508 891.576C848.7 887.512 848.647 883.372 850.074 880.152ZM1148.32 916.731C1139.88 917.076 1132.02 918.905 1123.63 919.751C1128.28 929.634 1152.81 943.613 1150.58 948.519C1152.35 949.892 1154.14 951.211 1155.97 952.489C1153.43 943.572 1150.87 934.669 1148.3 925.75C1241.51 1152.79 1254.32 1421.42 1266.71 1669.1C1270.79 1793.99 1273.01 1919.26 1266.97 2044.07C1263.61 2077.22 1254.73 2110.72 1257.15 2144.2C1311.86 2152.08 1367.36 2152.75 1422.29 2146.92C1423.92 2142.66 1425.75 2138.46 1427.84 2134.35C1510.07 2034.1 1466.46 1908.46 1426.87 1799.87C1402.92 1800.89 1378.84 1799.37 1354.87 1799.66C1362.28 1822.58 1364.19 1846.83 1368.13 1870.52C1370.81 1887.41 1374.24 1904.16 1378.17 1920.79L1379.23 1925.23C1380.71 1931.36 1382.68 1937.98 1380.52 1944.06C1378.41 1950.06 1371.11 1952.49 1366.27 1947.82C1357.56 1937.88 1358.49 1923.07 1355.68 1910.74L1355.16 1906.86C1350.36 1871.47 1344.04 1834.76 1352.81 1799.65C1344.2 1797.8 1320.66 1804.59 1319.43 1793.02C1319.79 1773.9 1305.92 1732.48 1321.36 1719.89C1330.54 1712.88 1346.34 1715.1 1357.11 1714.66C1369.55 1714.16 1381.99 1713.7 1394.42 1713.78C1294.49 1472.28 1322.28 1397.95 1332.42 1157.6L1332.73 1150.27C1332.7 1148.68 1335.25 1148.29 1335.53 1149.89C1350.81 1248.33 1330.44 1348.01 1340.09 1446.76C1357.22 1634.4 1476.13 1795.51 1496 1982.25C1538.87 1977.27 1582.25 1983.37 1623.8 1994.13C1624.67 1986.55 1625.35 1978.94 1625.82 1971.33C1633.71 1831.94 1584.8 1696.57 1527.74 1571.56C1493.54 1505.2 1472.4 1434.38 1463.55 1360.33C1446.37 1263.88 1407.82 1173.02 1369.39 1083.42C1345.1 1016.43 1292.59 1000.63 1227.47 992.853C1249.43 1029.26 1271.26 1065.74 1293.06 1102.26C1297.92 1113.3 1283.01 1121.18 1276.51 1127.98C1356.51 1171.6 1309.8 1306.32 1311.45 1381.8C1305.51 1451.16 1303.27 1520.92 1292.8 1589.8C1292.04 1594.58 1284.72 1593.18 1284.65 1588.71C1285.61 1485.5 1297.92 1382.71 1303.32 1279.67L1303.98 1272.15C1308.19 1223.37 1312.31 1152.99 1253.65 1139.6C1245.73 1138.3 1245.13 1126.54 1251.48 1123C1259.94 1118.29 1267.35 1112.54 1273.99 1105.7C1251.57 1068.09 1229.2 1030.46 1207.03 992.694L1205.99 990.938C1190.24 964.217 1175.61 933.122 1148.32 916.731ZM957.96 1901.11C951.488 1882.05 888.682 1894.46 871.919 1896.54C810.1 1908.21 747.886 1935.57 700.802 1977.7C697.895 1980.3 694.461 1980.25 691.752 1978.84C670.663 2005.78 646.308 2030.2 619.599 2051.65C624.488 2055.51 629.51 2059.24 634.677 2062.81C637.149 2063.08 639.382 2064.36 640.387 2066.65C713.874 2119.9 767.934 2078.37 844.275 2087.96C872.777 2093.7 899.024 2111.83 928.397 2112.6C949.952 2107.69 930.973 2098.68 920.906 2095.2C898.11 2084.32 874.87 2074.39 851.582 2064.61L832.948 2056.8C823.792 2052.96 826.937 2039.12 837.165 2041.54C855.071 2045.76 873.03 2049.77 891 2053.72C925.561 2060.76 960.947 2069.81 995.872 2073.24C988.107 2051.66 905.738 2028.35 881.788 2019.78C872.744 2015.5 846.947 2016.32 849.891 2002.3C852.269 1989.25 879.719 2004.19 888.874 2005.25C926.234 2014.73 964.37 2020.47 1002.44 2026.25C961.549 1985.23 898.162 1981.69 845.94 1962.47L844.797 1962.22C835.486 1960.07 822.416 1956.02 830.044 1945.36C856.877 1905.8 962.451 1925.82 957.96 1901.11ZM880.693 1680.84C899.741 1665.22 909.944 1697.31 908.734 1712.24C909.633 1724.62 910.598 1737.01 911.405 1749.4C910.225 1759.08 920.546 1794.38 906.739 1794.7C846.396 1791.64 786.155 1792.41 725.792 1788.78C725.712 1800.96 725.119 1813.12 725.74 1825.31C725.411 1840.55 730.707 1855.77 727.615 1870.84C725.727 1877.77 716.305 1878.7 712.626 1872.79C701.601 1846.85 709.181 1813.39 716.991 1787.16C687.432 1781.7 683.356 1753.91 691.143 1729.12L691.062 1727.78C690.629 1720.13 690.662 1711.93 694.077 1705.75C703.205 1695 722.138 1701.98 734.711 1701.17C773.257 1697.2 812.51 1696.1 850.605 1689.02C860.465 1686.47 870.522 1681.33 880.693 1680.84ZM641.087 1318.67C611.078 1375.95 576.552 1430.46 539.797 1483.53C531.921 1494.86 523.834 1506.04 515.617 1517.15L514.096 1519.09C497.675 1539.95 480.621 1557.25 496.136 1584.92C536.79 1683.66 591.223 1776.38 654.287 1862.44C650.294 1681.18 646.767 1499.87 641.087 1318.67ZM1395.53 1716.68C1320.14 1732.48 1318.73 1702.9 1331.31 1786.63C1361.55 1786.84 1391.77 1786.16 1422.02 1786.65C1413.37 1763.26 1404.41 1739.98 1395.53 1716.68ZM889.441 1693.03C850.063 1706.71 808.253 1704.76 767.128 1706.45C767.211 1715.29 725.132 1707.08 717.058 1708.29L713.952 1708.03C707.274 1707.49 698.88 1707.4 698.807 1715.59C700.95 1729.91 692.887 1745.6 697.882 1759.67C704.622 1778.63 733.456 1776.67 749.366 1777.04C775.597 1777.64 801.828 1778.27 828.059 1778.96C851.621 1779.58 875.263 1780.75 898.85 1780.92C896.722 1764.14 896.142 1746.94 894.86 1730.18C893.247 1718.12 895.574 1703.83 889.441 1693.03ZM1055.02 1753.98C1055.06 1754.2 1055.1 1754.41 1055.15 1754.63C1055.61 1754.5 1056.13 1754.43 1056.58 1754.3C1056.06 1754.21 1055.54 1754.1 1055.02 1753.98Z" fill="black"/>
<path fill-rule="evenodd" clip-rule="evenodd" d="M1263.4 593.643C1258.41 511.596 1231.79 418.575 1153.46 378.291C980.764 308.964 753.71 483.549 741.689 661.9C737.498 722.951 771.385 789.662 833.311 806.636C847.08 824.882 867.902 836.026 888.453 845.697C1133.23 972.731 1291.35 869.466 1263.4 593.643V593.643Z" fill="white"/>
<path fill-rule="evenodd" clip-rule="evenodd" d="M1319.17 542.605C1310.52 518.572 1301.38 494.724 1291.77 471.06C1282.4 448.029 1273.95 424.501 1262.32 402.562C1192.88 271.527 1066.6 271.527 1001.33 288.648C967.479 274.059 904.076 278.175 868.829 291.339C811.768 312.651 742.209 396.487 718.427 434.154C665.919 517.319 633.15 628.01 668.028 724.111C672.587 736.671 678.401 748.304 684.947 759.514C680.824 765.104 676.078 770.399 670.82 775.601C655.197 791.063 639.573 806.016 626.076 823.455C612.664 840.786 601.545 859.216 593.268 879.536C577.66 917.857 576.908 961.249 597.543 997.814C615.495 1029.63 647.298 1053.32 683.127 1055.58C684.967 1055.84 686.809 1056.07 688.659 1056.26C693.406 1064.08 699.195 1071.28 705.802 1077.56C726.043 1096.82 774.294 1106.7 801.814 1107.33C803.225 1108.47 804.649 1109.6 806.074 1110.72C822.913 1123.98 840.583 1137.35 859.915 1146.78C873.009 1153.18 890.178 1158.52 903.84 1153.91C910.038 1158.05 920.205 1157.18 926.35 1153.79C936.451 1148.22 944.666 1138.2 949.664 1127.93C961.782 1103.02 958.868 1075.75 955.756 1049.13C952.327 1019.73 949.031 990.318 945.681 960.916C943.057 937.925 940.314 914.552 933.325 892.405C929.712 880.929 924.978 869.902 918.859 859.534C919.018 858.663 918.991 857.793 918.741 856.975C916.736 850.459 912.596 847.042 907.69 842.61C907.057 842.043 906.424 841.463 905.805 840.869C903.352 838.073 900.728 835.474 897.919 833.272C896.838 832.177 895.77 831.069 894.701 829.961C885.827 820.661 877.44 810.887 869.99 800.414C862.763 790.257 856.236 779.652 850.025 768.849C843.708 757.861 839.528 745.739 833.225 734.831C832.684 733.894 831.313 733.71 830.548 734.488C828.596 736.506 827.344 738.748 827.581 741.109L826.605 741.255C826.236 737.693 822.953 734.791 818.495 735.569C811.823 736.73 806.337 737.165 800.562 734.949C801.577 728.209 802.513 721.456 803.436 714.689C805.124 702.237 806.693 689.746 808.038 677.254C811.295 678.032 814.526 679.154 817.691 680.578C822.201 682.596 826.46 685.314 830.1 688.651C833.687 691.948 836.166 696.394 840.544 698.689C845.581 701.314 851.66 696.974 850.183 691.276C847.19 679.76 830.245 673.165 819.761 670.989C816.161 670.237 812.482 669.92 808.803 669.999C809.634 661.979 810.372 653.96 810.979 645.927C811.269 642.128 811.533 638.329 811.783 634.517C819.933 632.05 828.662 631.312 837.141 632.472C839.937 634.702 842.733 636.904 845.436 639.134C854.02 646.23 862.565 653.366 871.005 660.634C871.77 661.28 872.521 661.927 873.286 662.586C878.297 666.9 884.548 662.626 883.704 656.519C876.82 606.474 907.466 566.665 943.347 535.825C983.066 501.675 1055.28 497.699 1102.51 438.545C1124.27 442.974 1172.84 456.128 1192.88 488.076C1220.94 532.844 1217.27 572.957 1219.41 623.74C1221.55 674.563 1226.98 727.576 1215.44 777.687C1204.8 823.893 1175.99 863.372 1131.28 881.523C1130.18 881.971 1129.06 882.406 1127.93 882.828C1104.82 891.547 1079.59 894.014 1055.28 889.424C1028.36 884.332 1005.89 872.012 983.501 856.856C982.208 855.999 980.323 857.766 981.299 859.059C1010.81 898.182 1068.78 911.254 1114.76 900.926C1116.91 900.438 1119.05 899.91 1121.17 899.33C1110.88 928.916 1112.95 961.391 1126.35 990.199C1134.41 1007.53 1146.7 1022.53 1161.67 1034.36C1178.16 1047.39 1198.63 1057.92 1210.07 1076.21C1220.56 1092.98 1217.45 1111.82 1199.5 1121.5C1194.98 1123.95 1193.24 1131.88 1197.72 1135.36C1199.43 1136.68 1201.15 1138.03 1202.9 1139.34C1212.95 1146.93 1240.55 1161.17 1245.02 1161.7C1284.71 1166.41 1311.4 1137.26 1328.5 1102.87C1348.59 1062.51 1343.37 1013.32 1321.24 974.885C1303.49 944.046 1268.53 913.655 1282.43 874.624C1287.39 860.681 1297.53 848.797 1307.38 838.06C1318.61 825.832 1330.69 814.383 1341.47 801.72C1352.17 789.149 1361.67 775.471 1366.97 759.695C1374.71 736.638 1370.86 711.708 1365.05 688.69C1352.58 639.279 1336.4 590.526 1319.17 542.605Z" fill="black"/>
<path fill-rule="evenodd" clip-rule="evenodd" d="M1097.69 800.568C1088.81 796.95 1080.88 790.916 1075.09 783.208C1073.07 780.529 1072.55 777.699 1072.97 775.111C1073.45 772.201 1075.17 769.564 1077.52 767.795C1079.88 766.02 1082.83 765.145 1085.69 765.591C1088.17 765.979 1090.64 767.334 1092.59 770.144L1093 770.706C1096.44 775.358 1100.93 779.175 1106.05 781.636C1110.98 784.007 1116.49 785.114 1122.2 784.47C1133.06 783.245 1140.55 777.378 1148.52 769.412C1149.5 768.406 1150.49 767.369 1151.48 766.315C1152.11 765.359 1152.98 764.745 1153.94 764.423C1155.02 764.065 1156.23 764.085 1157.34 764.472C1158.41 764.845 1159.37 765.553 1160.01 766.494C1160.62 767.388 1160.97 768.493 1160.86 769.765C1160.13 778.021 1155.8 785.389 1149.66 791.175C1142.84 797.6 1133.79 802.046 1125.28 803.605C1115.9 805.322 1106.34 804.092 1097.69 800.568V800.568ZM1129.71 673.201C1139.68 679.255 1154.89 693.373 1144.15 708.383C1131.52 721.618 1113.33 706.443 1104.36 699.58C1096.05 694.262 1086.71 707.941 1094.42 714.152C1159.2 762.027 1185.49 674.784 1134.75 666.082C1129.17 665.123 1127.09 671.328 1129.71 673.201ZM1013.61 617.509C1014.72 603.849 1035.56 600.747 1037.63 614.264C1039.49 626.373 1037.3 637.497 1031.84 648.399C1026.62 658.814 1013.5 653.955 1012.5 644.471C1011.17 631.758 1012.93 626.007 1013.61 617.509ZM1172.27 611.462C1175.18 607.663 1179.38 605.07 1184.4 606.535C1200.11 611.116 1195.48 633.372 1189.96 644.206C1186.97 650.089 1177.28 651.581 1172.9 646.401C1165.76 637.953 1162.35 621.084 1171.42 612.764C1171.66 612.334 1171.94 611.9 1172.27 611.462ZM1031.62 557.735L1034.1 557.302C1041.77 555.977 1051.32 554.704 1056.75 560.863C1059.63 564.129 1060.62 570.199 1056.75 573.325C1049.94 578.826 1042.41 576.694 1034.25 577.16C1027.53 577.545 1021.07 578.655 1014.59 580.503C1000.38 584.557 988.805 591.957 976.67 600.082C975.077 601.148 973.452 599.115 974.212 597.629C981.217 583.933 994.792 572.683 1008.39 565.825C1015.65 562.165 1023.59 559.128 1031.62 557.735ZM1157.96 551.6L1159.86 551.988C1180.52 556.3 1207.37 564.912 1217.15 585.172C1217.53 588.037 1217.13 588.651 1216.81 589.052L1216.7 589.186C1216.44 589.528 1216.23 590 1214.99 590.39C1214.64 590.308 1214.29 590.221 1213.94 590.129C1209.45 588.956 1205.9 587.339 1202.47 585.662L1198.74 583.83C1194.42 581.715 1190.06 579.677 1185.44 578.172C1175.58 574.961 1165.44 572.7 1155.14 571.492C1152.91 571.231 1150.76 570.478 1149.06 569.19C1147.45 567.966 1146.22 566.272 1145.66 564.021C1144.93 561.107 1145.14 558.901 1146.71 556.272C1147.89 554.298 1149.57 552.93 1151.51 552.144C1153.48 551.343 1155.72 551.154 1157.96 551.6Z" fill="black"/>
</svg>
