<svg width="315" height="626" viewBox="0 0 315 626" fill="none" xmlns="http://www.w3.org/2000/svg">
<path fill-rule="evenodd" clip-rule="evenodd" d="M74.0941 217.632C68.9885 223.602 69.4398 225.262 72.1601 231.29C78.1699 245.276 86.7873 259.493 96.5695 272.462C95.9238 243.366 95.3684 214.111 94.4133 184.749C88.5967 196.094 82.4024 206.342 74.0941 217.632M73.1308 577.243C69.9171 576.932 47.2991 577.768 53.3522 571.174C51.4838 567.119 56.7037 563.697 59.9203 560.612C62.9299 557.742 65.8958 554.552 68.9862 550.862C71.8641 547.441 75.1083 543.397 77.2057 538.677C77.67 537.938 78.1415 537.42 78.6085 537.137L78.8778 536.974L79.0455 536.707C80.8156 533.883 82.2772 530.964 83.8856 528.087C79.9518 526.666 76.3777 525.239 71.922 523.267C78.2092 486.251 87.6319 450.187 93.7244 413.062C97.4328 380.755 99.4236 348.145 107.909 316.328L108.995 316.412L109.6 314.327C108.709 314.304 106.903 314.244 106.009 314.209L106.219 315.275C102.173 314.807 98.2093 313.655 94.2766 312.677C92.2696 312.403 90.2574 310.967 90.9796 308.576C91.2119 305.106 91.9299 301.721 92.2679 298.252C90.988 297.379 89.6677 296.382 88.4031 295.359C85.0588 296.936 81.0167 302.027 77.3599 300.732C68.8139 289.263 61.6418 275.477 55.1515 264.464C39.4755 238.994 34.5001 223.073 50.6678 196.515C64.6459 174.267 79.7239 138.905 107.746 133.321C110.892 132.734 114.188 132.709 117.212 131.276C117.367 129.221 118.394 128.041 119.146 128.024C120.972 127.623 122.976 126.979 124.76 126.962C125.388 126.7 126.155 126.916 126.759 127.034C128.556 123.428 128.396 118.824 130.365 115.443C130.437 112.882 131.217 110.052 139.113 109.537C144.488 109.088 152.1 108.656 156.397 111.004C159.403 113.424 159.434 118.844 159.057 122.664C158.643 125.469 158.828 128.731 161.025 132.026C167.287 130.093 171.654 134.179 175.574 141.8C191.984 144.034 195.523 145.303 201.89 161.554C204.926 168.602 208.088 176.132 210.455 183.847C213.625 193.279 213.903 203.152 216.985 212.65C225.355 233.585 233.866 247.095 236.546 271.467C237.854 282.228 237.103 287.564 235.859 289.18C232.322 288.158 227.759 287.374 224.044 286.939L228.019 289.962C224.651 305.231 234.352 348.777 208.048 345.432C207.815 344.864 208.244 341.737 208.357 340.44C207.638 340.491 206.308 340.538 205.599 340.449C204.345 344.068 202.462 347.319 201.273 351C200.685 353.244 199.942 355.501 199.216 357.683C182.651 413.46 179.37 467.158 186.762 523.156L186.428 523.277L186.293 523.517L186.09 523.593C185.568 524.29 184.829 524.32 183.649 524.322C176.403 524.576 170.037 524.903 164.133 525.068C164.76 528.202 164.359 531.502 164.082 534.691C167.519 534.449 170.671 535.843 173.812 537.518C179.813 540.463 185.79 543.557 191.601 546.94C197.37 550.631 206.699 553.787 202.067 560.421L203.407 560.946C203.452 560.964 203.48 560.98 203.497 560.99C203.656 561.554 201.841 563.886 201.304 563.861C188.618 564.453 177.798 561.491 161.57 558.388C157.855 557.04 139.142 554.749 139.064 551.211C139.123 550.108 140.263 550.183 141.058 550.045C138.674 538.008 146.733 537.037 147.887 526.115C146.291 526.419 144.566 526.679 142.932 526.231C141.498 502.923 143.802 479.063 141.254 455.527L138.664 455.241C129.958 480.851 120.931 507.055 113.997 533.657C113.865 534.235 113.218 533.84 112.921 533.629C108.39 533.521 103.857 533.037 99.4135 532.275C99.3067 534.891 99.1945 537.556 99.0843 540.17L99.7691 540.538C100.211 541.152 100.025 544.03 99.9449 545.268C99.8642 546.534 99.7975 547.45 99.9096 548.309C101.339 551.126 96.4521 557.231 93.8676 560.625C88.2365 567.912 83.5719 578.703 73.1308 577.243" fill="white"/>
<path fill-rule="evenodd" clip-rule="evenodd" d="M185.403 253.251C185.403 253.251 209.86 290.548 207.929 311.193C207.815 312.415 205.843 331.372 205.833 332.687C205.766 341.201 209.342 333.607 206.786 340.486C204.698 346.103 190.423 379.428 185.438 427.985C182.635 455.294 186.391 524.044 186.391 524.044L143.506 526.707L139.694 452.903C139.135 453.802 113.201 532.604 113.201 532.604L92.9971 530.512L72.2217 522.522C72.2217 522.522 82.5941 479.211 92.9971 419.045C97.9225 390.559 105.46 312.274 105.46 312.274C105.114 307.338 151.511 308.53 151.511 308.53C151.511 308.53 135.664 258.209 147.128 251.275C154.392 246.88 185.403 253.251 185.403 253.251Z" fill="#E3B08B"/>
<path fill-rule="evenodd" clip-rule="evenodd" d="M100.314 550.798L100.092 551.137C99.8079 551.576 99.5493 551.988 99.295 552.412L99.1464 552.662L98.6439 553.411L98.3178 553.903C97.8597 554.597 97.3693 555.352 96.7104 556.376L94.897 559.198L94.1373 560.372C92.233 563.301 90.9983 565.091 89.5492 566.993L89.1748 567.481L88.9797 567.724L88.7858 567.963C85.3503 572.154 81.6374 575.011 77.4285 576.216L77.288 576.256L77.1567 576.292L77.0209 576.303C71.1398 576.776 65.2567 576.271 57.2788 574.873L56.7667 574.782L56.1477 574.671L54.7997 574.425L54.4838 574.108C52.6384 572.255 52.385 570.118 53.5177 567.988C54.2597 566.593 55.3994 565.386 57.4446 563.609L59.0403 562.23C60.51 560.954 60.7536 560.703 61.1176 560.204L61.2673 559.997L61.3378 559.923C67.9412 553.037 73.4571 546.403 77.7144 538.594L77.8796 538.289L78.1286 537.828L78.6172 537.638C82.6174 536.076 87.0973 536.251 90.8478 538.158L90.9712 538.222L91.0907 538.285L91.2142 538.353C91.8451 538.705 92.3734 539.086 93.2906 539.81L93.8048 540.216L94.046 540.403C94.8429 541.017 95.3047 541.312 95.8641 541.558C96.9477 542.032 98.2342 541.953 98.6682 541.487L98.6919 541.46L98.7124 541.434L99.2874 539.832L100.314 550.798ZM145.612 535.542C145.801 536.13 145.08 538.459 145.603 539.261C146.075 539.984 147.736 539.786 148.888 539.774L149.123 539.77L149.362 539.763C149.739 539.75 150.137 539.727 150.657 539.69L152.183 539.579L152.311 539.571C152.351 539.568 152.392 539.566 152.434 539.564L152.673 539.553L152.823 539.547L152.881 539.543C154.768 539.395 156.32 538.365 159.35 537.173L160.76 536.614C162.175 536.056 162.969 535.767 163.926 535.473L164.064 535.431L164.137 535.417C166.835 534.892 170.206 535.909 174.785 538.192L175.075 538.338L175.387 538.496C176.118 538.869 176.888 539.278 177.755 539.749L179.096 540.487C180.029 541.002 181.183 541.641 181.59 541.863L181.977 542.073L182.33 542.262C183.208 542.731 183.909 543.085 184.518 543.363L184.719 543.453L184.766 543.479C190.013 546.321 194.832 549.128 199.357 552.002L199.713 552.228L199.833 552.293C205.279 555.314 205.354 560.191 200.225 563.58L200.068 563.683L199.905 563.786L199.509 564.032L199.045 563.999C191.126 563.429 182.938 562.264 173.944 560.503L173.062 560.328C166.327 558.989 159.681 557.449 150.254 555.101L148.393 554.636L145.36 553.874L145.281 553.866C141.972 553.524 140.139 551.044 140.141 547.622L140.143 547.428L140.143 547.266C140.139 543.675 141.702 540.364 143.034 537.683L143.104 537.544L143.175 537.407L145.612 535.542Z" fill="white"/>
<path fill-rule="evenodd" clip-rule="evenodd" d="M104.97 314.513C105.778 314.549 106.509 314.582 107.118 314.624L107.387 314.643L107.396 314.717L107.723 314.727C121.573 315.127 135.477 314.661 149.225 312.875L150.081 312.763C150.504 312.708 150.931 312.656 151.36 312.604L151.363 312.604C152.988 312.407 154.635 312.207 156.207 311.828C157.223 311.685 157.817 311.15 158.152 310.442C158.57 309.562 158.556 308.377 158.431 307.36L158.413 307.22C156.808 273.415 148.517 240.722 140.226 208.035L140.219 208.01C133.44 181.283 126.661 154.56 123.553 127.235L122.727 127.444L121.361 127.784C120.029 128.122 119.087 128.427 118.409 128.971C117.793 129.466 117.377 130.152 117.108 131.255C116.951 131.935 116.853 132.78 116.794 133.849C116.194 137.831 116.12 135.531 116.259 132.767C116.269 132.573 116.271 132.373 116.267 132.167C116.094 132.247 115.918 132.323 115.739 132.394C113.984 133.082 112.108 133.184 110.234 133.286L110.174 133.29C109.038 133.351 107.903 133.414 106.789 133.596C101.109 134.591 96.1032 137.813 91.6465 141.342L91.3516 141.577C74.3303 156.592 63.0396 176.996 52.1328 196.722L52.1287 196.729C51.5894 197.705 51.051 198.679 50.5129 199.65L49.8169 200.905C41.8319 214.686 38.0159 231.524 46.0162 246.175C55.2451 264.828 65.95 282.808 77.2863 300.288C77.7975 300.951 78.4012 301.135 79.0378 301.063C79.8056 300.977 80.6433 300.462 81.4149 299.969L81.4295 299.96C81.7088 299.781 81.979 299.609 82.247 299.463C89.8152 294.918 96.378 288.736 101.425 281.506C101.479 281.43 101.532 281.353 101.585 281.276C101.529 281.2 101.47 281.126 101.411 281.052C88.2936 264.619 76.086 246.671 69.2783 226.679C68.9516 223.527 71.8185 220.07 74.4512 216.895C74.5154 216.818 74.5796 216.74 74.6435 216.663C75.9552 215.08 77.2045 213.57 78.0125 212.205C83.3852 204.801 88.4143 197.144 93.2319 189.343C93.3564 189.109 93.4806 188.874 93.6044 188.639L93.6661 188.521C93.6572 188.482 93.6497 188.443 93.6436 188.404C93.5998 188.121 93.6285 187.828 93.7464 187.603C93.8272 187.449 93.9544 187.328 94.1392 187.296C94.1981 187.285 94.2546 187.285 94.3085 187.294L94.322 187.268L94.3321 187.579L95.1034 186.292L95.6396 185.404C95.7352 185.246 95.8282 185.094 95.9186 184.946C95.7523 185.288 95.5728 185.657 95.3802 186.053L95.2036 186.416L94.8357 187.171C96.0907 205.789 96.378 224.646 96.6649 243.479L96.6651 243.488C96.8124 253.159 96.9597 262.822 97.2376 272.444L97.2411 272.563C97.2571 272.586 97.2733 272.607 97.2894 272.629C97.2977 272.64 97.306 272.651 97.3143 272.662C99.5304 275.593 101.811 278.475 104.146 281.312L104.369 281.582C104.423 281.545 104.477 281.507 104.532 281.469C104.573 281.441 104.615 281.412 104.657 281.383C112.166 276.212 121 272.839 130.073 271.793L130.419 271.759L131.394 271.659C133.642 271.432 136.501 271.195 138.559 272.004C139.26 272.28 139.865 272.68 140.305 273.259C140.693 273.771 140.949 274.421 141.038 275.238C140.887 276.59 140.077 277.415 138.906 277.951C137.174 278.743 134.688 278.929 132.188 279.116L132.069 279.125C128.73 279.374 125.405 279.661 123.641 281.173C123.491 281.302 123.348 281.443 123.212 281.595C123.39 281.669 123.568 281.743 123.746 281.815C126.256 282.825 128.902 283.567 131.554 284.309L131.611 284.325C136.009 285.557 140.425 286.793 144.265 289.331C145.387 289.985 147.175 291.487 147.639 292.884C147.774 293.29 147.79 293.689 147.58 294.039C147.385 294.364 147.013 294.637 146.439 294.857C145.498 294.928 144.539 294.735 143.585 294.544L143.529 294.533C142.864 294.4 142.201 294.268 141.546 294.212L141.392 294.951C143.169 295.549 144.809 296.556 145.875 298.183C146.272 298.776 146.612 299.714 146.506 300.49C146.47 300.752 146.382 300.994 146.211 301.186C146.066 301.349 145.863 301.473 145.596 301.549C142.725 301.622 139.861 301.005 137.015 300.391L136.968 300.38C135.64 300.094 134.315 299.808 132.995 299.591C132.004 299.428 130.999 299.301 129.988 299.182L133.163 300.47L133.347 300.546C135.074 301.26 137.315 302.268 138.031 303.643C138.253 304.069 138.307 304.533 138.11 305.035C137.914 305.533 137.492 306.057 136.798 306.621C134.061 308.014 130.936 306.753 127.975 305.558L127.778 305.478C126.419 304.93 125.093 304.397 123.847 304.104C119.383 303.065 115.382 303.567 111.457 304.067L111.399 304.074C105.643 304.806 100.046 305.517 93.3298 300.998C93.1464 300.874 92.9668 300.75 92.7912 300.625C92.7754 300.843 92.7577 301.061 92.7372 301.277C92.6293 302.416 92.4403 303.566 92.2508 304.719L92.2486 304.733C91.8745 307.01 91.5025 309.301 91.7115 311.55C91.7158 311.597 91.7204 311.643 91.7252 311.69C91.7598 311.725 91.7949 311.759 91.8304 311.792C94.1631 313.974 100.626 314.318 104.96 314.513L104.97 314.513ZM235.498 288.319C235.625 287.219 235.723 286.115 235.792 285.008C236.933 264.847 229.867 245.264 221.603 227.164C216.691 217.635 213.655 207.465 212.381 196.81C210.022 183.569 204.878 171.056 199.607 158.736L198.78 156.806C197.17 152.375 194.718 149.469 191.64 147.505C187.904 145.121 183.233 144.132 178 143.507C177.742 143.476 177.485 143.446 177.229 143.418C177.361 143.639 173.841 140.896 170.849 136.433C168.1 132.912 167.512 132.875 165.472 132.746L165.396 132.741L165.392 132.741C164.669 132.695 163.752 132.637 162.467 132.4C162.153 132.342 161.863 132.282 161.594 132.221C161.75 132.48 161.913 132.735 162.081 132.986C162.581 133.729 163.135 134.437 163.734 135.107C163.747 135.122 163.824 135.19 163.951 135.302C164.958 136.192 169.089 139.846 169.124 141.478C183.231 187.455 183.858 236.287 183.614 284.022L183.598 286.957C183.822 290.939 183.287 294.877 182.752 298.811L182.747 298.847C182.246 302.533 181.748 306.217 181.855 309.927C181.858 310.034 181.861 310.14 181.865 310.247C181.971 310.262 182.076 310.278 182.181 310.293C190.104 311.433 198.141 311.531 206.095 310.687L206.328 310.662C206.337 310.639 206.483 310.486 206.686 310.273C207.133 309.803 207.857 309.042 208.011 308.736C217.114 295.084 216.347 286.983 216.347 286.983L216.347 286.985C216.419 286.977 216.491 286.968 216.563 286.959C216.619 286.953 216.675 286.946 216.731 286.94C222.869 286.228 229.075 287.104 235.024 288.644C235.106 288.665 235.188 288.686 235.27 288.708C235.329 288.723 235.388 288.739 235.447 288.755C235.454 288.691 235.462 288.627 235.47 288.563C235.48 288.482 235.489 288.4 235.498 288.319Z" fill="#E59A66"/>
<path fill-rule="evenodd" clip-rule="evenodd" d="M129.034 115.524C130.568 114.486 128.384 123.495 128.38 124.362L128.341 124.55C127.959 126.385 127.286 128.52 125.736 129.697C126.451 135.537 127.34 141.359 128.435 147.138L129.079 147.223C138.632 148.487 148.248 150.225 157.961 149.32C163.194 149.361 166.658 145.785 168.768 141.35C168.625 140.827 168.482 140.306 168.336 139.782C161.69 135.718 156.657 127.47 159.652 119.684C159.779 119.351 160.176 119.329 160.38 119.502C160.413 119.505 160.443 119.532 160.441 119.568L160.334 121.215C160.131 124.49 160.063 127.875 161.838 130.821C169.069 129.175 173.565 135.195 176.589 140.893L178.76 141.214C187.07 142.447 195.083 143.906 199.186 152.407L199.748 153.601C205.482 165.816 210.824 178.377 213.952 191.531C215.526 198.529 216.096 205.74 218.406 212.565C223.201 225.238 229.959 237.149 233.624 250.269C235.897 255.003 242.296 290.64 235.983 290.911C233.713 290.232 231.401 289.682 229.064 289.292C229.425 289.566 229.556 290.032 229.488 290.508C228.672 296.22 228.611 302.006 228.615 307.766C229.046 321.716 228.659 351.727 207.622 346.91C206.086 346.346 207.083 343.886 207.022 342.168C206.902 342.174 206.779 342.172 206.658 342.164C205.45 345.419 203.756 348.423 202.695 351.73C201.795 354.572 201.166 357.629 199.912 360.351C186.63 407.523 181.147 457.138 186.34 505.963C186.631 508.886 186.959 511.806 187.325 514.721C187.273 516.587 189.452 524.101 187.5 524.684C187.425 524.831 187.163 525 187.007 525.053C185.828 526.323 183.868 525.852 182.312 526.021C176.813 526.265 171.315 526.491 165.814 526.674C166.143 529.005 165.877 531.371 165.682 533.698C169.694 533.731 173.381 536.17 176.93 537.826C182.2 540.422 187.384 543.198 192.47 546.14C197.165 549.422 207.655 552.591 204.046 560.032C206.738 561.122 202.998 565.684 200.953 565.735C187.642 565.668 174.416 562.653 161.409 560.006C154.018 558.055 145.954 557.314 139.116 553.95C137.175 553.074 137.582 549.579 139.717 549.254C138.132 537.603 144.565 537.763 146.376 528.057C145.323 528.229 144.16 528.132 143.104 527.918C140.658 530.177 141.557 512.398 141.224 510.661C141.158 492.431 142.024 474.162 140.079 455.993L136.774 465.711C129.069 488.391 121.48 511.13 115.44 534.317C115.078 535.716 113.606 535.884 112.667 535.273C108.7 535.157 104.749 534.785 100.836 534.153C100.76 536.007 100.682 537.862 100.604 539.717C102.292 540.625 101.149 546.348 101.364 548.284C103.202 552.467 95.7623 560.612 93.3514 564.045C89.0107 570.101 84.6991 578.578 76.3043 578.859L76.0487 578.865C69.7821 579.018 63.4592 578.652 57.2534 577.758L56.4982 577.635C54.7285 577.339 52.7694 576.908 51.7508 575.335C50.878 573.988 50.9847 572.249 52.0443 571.22C50.6449 566.148 56.0923 563.077 59.1348 559.988C64.8183 554.511 69.9842 548.487 74.4515 541.982L74.7081 541.375C75.5361 539.424 76.5255 537.258 78.067 536.323C79.5369 533.992 80.7939 531.538 82.1212 529.127C78.4958 527.798 74.9261 526.312 71.396 524.749C70.6935 524.436 70.47 523.524 70.5928 522.845L70.6017 522.799C77.4933 487.05 85.7556 451.556 92.1819 415.725C96.2865 382.703 97.9691 349.261 106.598 316.965C102.412 316.53 98.2453 315.328 94.1369 314.301C90.8431 313.601 89.1776 311.93 89.8272 308.445C90.0506 305.348 90.6714 302.3 91.007 299.216C90.1301 298.603 89.2743 297.958 88.4414 297.296C86.8975 298.447 85.3041 299.531 83.667 300.543C79.7467 303.363 76.7208 303.802 74.299 299.179C67.2849 288.11 60.5207 276.879 54.1371 265.435C48.2157 254.457 40.8772 243.501 39.3741 230.861C37.1908 208.113 63.9086 171.71 77.2931 153.223C84.6741 144.318 93.6634 135.153 105.354 132.564C108.949 132.031 112.74 131.959 116.168 130.656C116.447 128.991 117.229 127.458 118.997 127.051C120.856 126.64 122.849 126.006 124.722 125.959C125.146 125.84 125.645 125.765 126.093 125.847C127.374 122.522 127.563 118.774 129.034 115.524ZM57.4192 573.849C57.7396 574.007 58.0711 574.144 58.4105 574.265C58.828 574.323 59.2435 574.376 59.6588 574.423C58.9059 574.254 58.1588 574.064 57.4192 573.849ZM99.0161 541.52C92.8757 543.747 91.1883 533.293 79.1117 537.523C74.392 546.278 68.2817 554.229 61.2978 561.298C58.8154 564.381 51.4679 567.882 55.4274 572.403L56.0339 572.514C62.91 573.764 69.8899 574.757 76.8967 574.191C82.1916 572.732 86.1625 568.492 89.3717 564.217C91.6934 560.105 94.4094 556.235 97.1821 552.419C98.7065 550.522 98.8611 548.107 98.854 545.773C98.9053 544.354 98.9589 542.937 99.0161 541.52ZM167.992 536.388C165.385 535.433 162.711 536.331 160.34 537.503C156.289 539.314 147.515 541.484 143.767 538.596C141.929 541.633 141.313 545.009 141.817 548.512L141.821 548.675C141.861 550.115 142.042 551.281 143.784 551.383L148.669 552.611C165.149 556.744 181.79 560.741 198.753 561.89C203.281 559.066 203.408 555.353 198.595 552.767L197.364 552.013C187.916 546.238 178.248 540.562 167.992 536.388ZM203.844 560.408C203.799 560.486 203.755 560.564 203.709 560.64C203.78 560.675 203.844 560.724 203.905 560.777C203.905 560.65 203.886 560.524 203.844 560.408ZM83.0361 529.458C83.099 530.742 82.4679 532.192 82.0238 533.344C81.7629 534.025 81.4942 534.997 81.0785 535.777C91.4029 532.734 94.5457 541.652 98.2682 539.797L98.3812 539.738V539.736C97.6212 538.001 98.45 535.559 98.9608 533.829C93.539 532.85 88.2155 531.325 83.0361 529.458ZM164.623 526.714L161.646 526.805C157.015 526.946 152.384 527.068 147.751 527.062C148.236 530.389 147.287 535.878 145.132 538.463C145.128 538.465 145.124 538.465 145.122 538.467C151.222 539.39 156.998 536.598 162.431 534.25C162.66 531.7 163.661 529.098 164.623 526.714ZM144.705 536.85C144.52 537.196 144.333 537.543 144.146 537.889C144.228 537.978 144.32 538.06 144.417 538.13C144.36 537.698 144.514 537.271 144.705 536.85ZM153.278 253.857C156.678 271.025 159.362 288.406 160.294 305.911L160.302 306.085C160.393 307.856 160.657 309.831 159.473 311.309C158.243 312.844 156.328 313.039 154.511 313.318C139.276 315.634 123.827 316.417 108.426 315.951C102.741 344.072 99.2638 372.543 97.143 401.139C92.5351 441.998 82.0755 481.939 74.2416 522.251C86.3905 527.562 98.9913 531.33 112.307 531.853C131.154 462.249 166.439 388.789 168.318 319.16C168.419 319.048 168.661 319.074 168.688 319.243C169.309 323.053 169.045 327.029 168.907 330.869C168.386 342.687 167.07 354.5 165.13 366.162C160.203 395.126 151.104 423.15 141.783 450.951C141.47 452.198 141.943 453.587 141.958 454.862C143.905 476.122 144.105 497.492 144.732 518.818C144.599 521.175 145.342 523.845 144.524 526.059C151.564 525.116 158.639 524.608 165.715 524.018L165.768 523.984C166.06 523.798 166.528 523.602 166.797 523.933C172.775 523.463 178.759 523.033 184.74 522.631C176.258 461.941 182.121 398.676 205.07 341.66C203.616 340.33 204.25 337.365 203.917 335.512C203.61 327.951 203.627 320.217 205.114 312.772L204.736 312.795C200.166 313.055 180.062 313.861 179.51 310.451C178.746 304.675 180.593 298.947 180.97 293.212C181.648 280.254 181.484 267.245 181.395 254.27C177.417 254.801 173.601 254.071 169.668 253.921C164.198 253.873 158.74 254.013 153.278 253.857ZM82.3707 529.221C82.2678 529.667 82.1479 530.115 82.0202 530.562C82.1968 530.162 82.3956 529.778 82.6322 529.44L82.7043 529.34L82.3707 529.221ZM147.43 527.064L147.104 527.067V527.067L147.103 527.254V527.254C147.179 527.381 147.192 527.537 147.097 527.663C147.085 528.237 147.061 528.813 147.017 529.39C147.143 528.614 147.268 527.838 147.43 527.064ZM143.289 526.873L143.306 527.162V527.162C143.723 527.147 144.144 527.164 144.56 527.144C144.779 527.132 145.004 527.094 145.231 527.054C144.577 527.033 143.925 526.982 143.289 526.873ZM217.468 288.474C217.262 288.716 217.038 288.862 216.809 288.936C216.811 294.428 215.702 299.828 212.662 304.583C211.397 306.259 210.683 308.167 210.071 310.155C206.856 319.254 206.259 329.028 207.431 338.556C210.59 333.925 211.846 328.399 212.728 322.951C212.776 322.677 213.23 322.68 213.279 322.951C214.346 328.783 212.511 334.511 210.317 339.901C208.947 340.88 209.273 343.444 209.109 344.953C232.398 348.344 224.299 303.662 227.283 289.901C227.338 289.522 227.66 289.246 228.026 289.13C224.533 288.598 220.993 288.559 217.468 288.474ZM107.793 315.924C107.822 316.07 107.847 316.217 107.865 316.363C107.908 316.221 107.949 316.076 107.991 315.932C107.927 315.93 107.86 315.928 107.793 315.924ZM123.533 126.924L123.125 127.03C118.822 128.14 117.429 127.987 117.186 133.18C116.128 140.227 112.223 146.373 110.468 153.187C109.765 155.593 110.508 160.028 113.837 159.377C114.916 159.046 115.757 160.499 114.941 161.269C112.53 163.548 110.189 165.897 107.835 168.231C117.287 200.111 129.566 231.163 144.524 260.872C145.117 262.051 143.338 263.088 142.749 261.908C127.879 232.105 115.512 201.063 105.914 169.175L105.624 168.208C105.2 167.034 110.62 162.827 111.607 161.454C101.71 156.688 115.528 139.999 115.903 131.963C113.07 133.207 109.859 132.76 106.867 133.262C101.126 134.268 96.0873 137.582 91.6084 141.159C73.4158 157.211 61.7899 179.436 50.1604 200.383C42.2404 214.051 38.4221 230.759 46.3699 245.297C55.5919 263.938 66.2898 281.905 77.6 299.347C78.842 300.961 80.7535 299.105 82.062 298.428C89.5844 293.911 96.1073 287.766 101.124 280.58C88.9621 265.668 78.3683 249.372 70.8762 231.617L70.7729 231.411C69.0918 228.035 67.7626 223.95 70.5668 220.77C80.5242 208.026 89.3801 194.496 97.7141 180.65C97.8 180.511 97.9924 180.633 97.9295 180.778C97.0737 182.714 96.1723 184.635 95.2326 186.539C97.1306 214.691 96.8099 243.393 97.6304 271.724C99.8431 274.651 102.121 277.529 104.452 280.361C112.013 275.154 120.909 271.758 130.044 270.706L130.635 270.647C134.515 270.248 140.924 269.496 141.432 274.53C140.804 280.722 127.996 277.241 123.901 280.753C130.613 283.456 138.305 284.218 144.468 288.293C146.445 289.446 150.321 293.118 146.534 294.523C144.883 294.664 143.176 294.023 141.526 293.882C143.383 294.507 145.092 295.567 146.18 297.228C146.963 298.367 147.535 300.732 145.664 301.219C141.397 301.339 137.147 299.949 132.945 299.257L133.318 299.409C136.382 300.662 141.144 302.914 137.018 306.233C132.887 308.37 127.886 304.735 123.771 303.765C112.688 301.188 104.49 308.25 93.1284 300.604C92.8059 303.159 92.3218 305.697 92.128 308.266L92.103 308.411C91.7093 310.756 92.0464 311.603 94.577 312.051C97.6281 312.972 100.824 313.261 103.995 313.432C119.253 314.238 134.613 313.666 149.767 311.713C151.948 311.128 157.07 311.68 157.982 309.282C156.274 247.563 130.538 189.488 123.451 128.571C123.335 127.985 123.327 127.388 123.533 126.924ZM166.55 132.199C165.333 132.248 164.2 132.512 162.989 132.634C163.659 134.059 167.198 136.075 166.876 136.783C167.131 136.981 167.39 137.171 167.653 137.355C167.287 136.069 166.917 134.785 166.547 133.499C179.992 166.241 181.839 204.979 183.626 240.696C184.214 258.705 184.534 276.77 183.664 294.768C183.179 299.548 181.898 304.38 182.247 309.207C190.138 310.343 198.144 310.44 206.067 309.599C206.301 308.985 206.566 308.38 206.866 307.786C218.727 293.33 212.437 275.213 206.726 259.554C203.273 259.7 199.799 259.481 196.342 259.523C197.41 262.828 197.686 266.324 198.254 269.742C198.641 272.177 199.135 274.593 199.703 276.991L199.855 277.63C200.069 278.514 200.353 279.469 200.042 280.346C199.737 281.212 198.685 281.561 197.987 280.888C196.729 279.455 196.864 277.319 196.458 275.541L196.383 274.982C195.691 269.879 194.78 264.585 196.045 259.521C194.803 259.255 191.408 260.234 191.23 258.564C191.282 255.808 189.282 249.835 191.509 248.019C192.833 247.009 195.111 247.329 196.664 247.266C198.46 247.194 200.253 247.127 202.047 247.138C187.633 212.313 191.642 201.593 193.104 166.934L193.148 165.876C193.144 165.648 193.512 165.591 193.552 165.821C195.756 180.018 192.818 194.391 194.21 208.633C196.681 235.692 213.831 258.924 216.698 285.853C222.882 285.136 229.138 286.015 235.131 287.567C235.257 286.473 235.354 285.375 235.423 284.278C236.561 264.178 229.506 244.657 221.275 226.629C216.343 217.06 213.294 206.847 212.017 196.168C209.54 182.259 203.979 169.157 198.436 156.237C194.933 146.576 187.359 144.298 177.966 143.176C181.134 148.426 184.283 153.687 187.426 158.952C188.127 160.545 185.978 161.681 185.04 162.661C196.578 168.952 189.841 188.379 190.079 199.265C189.223 209.267 188.9 219.327 187.39 229.26C187.279 229.949 186.223 229.747 186.213 229.102C186.353 214.219 188.128 199.395 188.907 184.536L189.002 183.453C189.609 176.418 190.203 166.268 181.742 164.337C180.601 164.151 180.513 162.454 181.43 161.945C182.65 161.265 183.719 160.436 184.676 159.449C181.443 154.026 178.216 148.599 175.018 143.153L174.868 142.9C172.596 139.046 170.486 134.562 166.55 132.199ZM139.094 274.152C138.16 271.404 129.101 273.194 126.684 273.493C117.767 275.176 108.794 279.121 102.003 285.197C101.583 285.571 101.088 285.566 100.697 285.362C97.6554 289.247 94.1426 292.768 90.2902 295.862C90.9954 296.417 91.7197 296.956 92.4649 297.471C92.8215 297.509 93.1437 297.694 93.2885 298.025C103.888 305.703 111.685 299.714 122.696 301.097C126.807 301.926 130.593 304.54 134.83 304.65C137.939 303.943 135.201 302.644 133.749 302.141C130.461 300.572 127.109 299.141 123.75 297.73L121.063 296.604C119.742 296.05 120.196 294.055 121.671 294.403C124.253 295.012 126.844 295.59 129.436 296.159C134.421 297.176 139.525 298.48 144.562 298.974C143.442 295.862 131.561 292.502 128.107 291.265C126.803 290.649 123.082 290.766 123.506 288.744C123.849 286.862 127.809 289.017 129.129 289.17C134.518 290.537 140.018 291.365 145.509 292.198C139.611 286.282 130.469 285.772 122.936 283.001L122.772 282.964C121.429 282.655 119.543 282.071 120.644 280.533C124.514 274.828 139.741 277.715 139.094 274.152ZM127.949 242.389C130.696 240.135 132.168 244.764 131.994 246.916C132.123 248.702 132.262 250.488 132.379 252.274C132.209 253.671 133.697 258.762 131.706 258.808C123.002 258.366 114.313 258.478 105.607 257.954C105.595 259.71 105.51 261.463 105.599 263.221C105.552 265.419 106.316 267.614 105.87 269.787C105.598 270.786 104.239 270.921 103.708 270.069C102.118 266.328 103.211 261.503 104.337 257.72C100.074 256.932 99.4861 252.926 100.609 249.351L100.598 249.157C100.535 248.054 100.54 246.871 101.032 245.98C102.349 244.43 105.08 245.437 106.893 245.32C112.453 244.747 118.115 244.588 123.609 243.568C125.032 243.2 126.482 242.458 127.949 242.389ZM93.3895 190.161C89.0612 198.421 84.0814 206.281 78.78 213.934C77.644 215.568 76.4776 217.181 75.2924 218.783L75.073 219.063C72.7045 222.071 70.2448 224.565 72.4826 228.556C78.3462 242.795 86.1974 256.166 95.2934 268.576C94.7174 242.437 94.2087 216.291 93.3895 190.161ZM202.207 247.557C191.332 249.835 191.129 245.569 192.944 257.644C197.305 257.674 201.664 257.575 206.027 257.646C204.78 254.273 203.488 250.916 202.207 247.557ZM129.211 244.146C123.531 246.119 117.501 245.838 111.569 246.081C111.581 247.356 105.512 246.172 104.347 246.347L103.899 246.309C102.936 246.231 101.725 246.219 101.715 247.399C102.024 249.464 100.861 251.726 101.581 253.756C102.553 256.489 106.712 256.208 109.007 256.261C112.791 256.347 116.574 256.438 120.357 256.537C123.756 256.626 127.166 256.795 130.568 256.82C130.261 254.401 130.177 251.92 129.992 249.503C129.76 247.764 130.095 245.704 129.211 244.146ZM153.093 252.936C153.099 252.966 153.105 252.997 153.112 253.029C153.178 253.01 153.254 253 153.318 252.982C153.244 252.968 153.168 252.953 153.093 252.936Z" fill="black"/>
<path fill-rule="evenodd" clip-rule="evenodd" d="M183.149 85.607C182.428 73.7752 178.589 60.361 167.291 54.5518C142.383 44.5545 109.634 69.7307 107.9 95.4501C107.295 104.254 112.183 113.874 121.115 116.322C123.101 118.953 126.104 120.56 129.068 121.955C164.374 140.274 187.18 125.382 183.149 85.607V85.607Z" fill="white"/>
<path fill-rule="evenodd" clip-rule="evenodd" d="M191.193 78.2472C189.945 74.7815 188.627 71.3424 187.24 67.9299C185.89 64.6087 184.67 61.2158 182.993 58.052C172.977 39.156 154.764 39.156 145.349 41.625C140.467 39.5212 131.322 40.1146 126.238 42.013C118.008 45.0863 107.975 57.176 104.545 62.6078C96.9713 74.6008 92.2449 90.5631 97.2757 104.421C97.9332 106.233 98.7718 107.91 99.7159 109.527C99.1211 110.333 98.4366 111.096 97.6783 111.847C95.4248 114.076 93.1714 116.233 91.2247 118.748C89.2902 121.247 87.6864 123.904 86.4926 126.835C84.2414 132.361 84.133 138.618 87.1092 143.891C89.6985 148.479 94.2855 151.896 99.4534 152.222C99.7188 152.258 99.9845 152.292 100.251 152.319C100.936 153.447 101.771 154.486 102.724 155.391C105.643 158.168 112.603 159.593 116.572 159.684C116.776 159.848 116.981 160.011 117.187 160.173C119.615 162.085 122.164 164.014 124.952 165.374C126.841 166.296 129.317 167.067 131.288 166.401C132.182 166.998 133.648 166.873 134.535 166.384C135.991 165.581 137.176 164.135 137.897 162.655C139.645 159.062 139.225 155.13 138.776 151.292C138.281 147.052 137.806 142.81 137.323 138.57C136.944 135.255 136.549 131.884 135.541 128.691C135.02 127.036 134.337 125.445 133.454 123.95C133.477 123.825 133.473 123.699 133.437 123.581C133.148 122.642 132.551 122.149 131.843 121.51C131.752 121.428 131.661 121.344 131.571 121.259C131.217 120.856 130.839 120.481 130.434 120.163C130.278 120.005 130.124 119.845 129.97 119.686C128.69 118.345 127.48 116.935 126.405 115.425C125.363 113.96 124.422 112.431 123.526 110.873C122.615 109.288 122.012 107.54 121.103 105.967C121.025 105.832 120.827 105.806 120.717 105.918C120.435 106.209 120.254 106.532 120.289 106.873L120.148 106.894C120.095 106.38 119.621 105.962 118.978 106.074C118.016 106.241 117.225 106.304 116.392 105.984C116.538 105.012 116.673 104.039 116.806 103.063C117.05 101.267 117.276 99.4658 117.47 97.6644C117.94 97.7766 118.406 97.9383 118.862 98.1438C119.513 98.4348 120.127 98.8266 120.652 99.3079C121.169 99.7834 121.527 100.424 122.158 100.755C122.885 101.134 123.762 100.508 123.549 99.6864C123.117 98.0258 120.673 97.0747 119.161 96.7609C118.642 96.6525 118.111 96.6068 117.58 96.6182C117.7 95.4617 117.807 94.3052 117.894 93.1468C117.936 92.599 117.974 92.0511 118.01 91.5014C119.186 91.1457 120.445 91.0392 121.668 91.2066C122.071 91.5281 122.474 91.8457 122.864 92.1672C124.102 93.1905 125.335 94.2196 126.552 95.2677C126.662 95.3609 126.771 95.4541 126.881 95.5492C127.604 96.1712 128.505 95.5549 128.384 94.6742C127.391 87.4574 131.811 81.7167 136.986 77.2695C142.715 72.3448 153.13 71.7713 159.943 63.2411C163.081 63.8797 170.086 65.7766 172.977 70.3837C177.025 76.8396 176.496 82.6241 176.804 89.9474C177.112 97.2764 177.896 104.921 176.232 112.147C174.697 118.811 170.541 124.504 164.093 127.121C163.934 127.186 163.772 127.249 163.61 127.31C160.276 128.567 156.638 128.923 153.13 128.261C149.248 127.526 146.007 125.75 142.778 123.564C142.591 123.441 142.319 123.695 142.46 123.882C146.717 129.524 155.078 131.409 161.71 129.919C162.02 129.849 162.328 129.773 162.634 129.689C161.151 133.956 161.45 138.639 163.382 142.793C164.544 145.293 166.317 147.455 168.475 149.162C170.855 151.041 173.807 152.559 175.458 155.197C176.97 157.615 176.521 160.331 173.932 161.727C173.28 162.081 173.029 163.224 173.675 163.726C173.923 163.917 174.17 164.111 174.423 164.301C175.872 165.395 179.853 167.449 180.498 167.525C186.223 168.204 190.072 164 192.539 159.041C195.436 153.221 194.683 146.128 191.491 140.585C188.931 136.137 183.889 131.755 185.894 126.126C186.609 124.116 188.072 122.402 189.492 120.854C191.113 119.09 192.855 117.439 194.409 115.613C195.953 113.8 197.323 111.828 198.087 109.553C199.204 106.228 198.649 102.633 197.81 99.3136C196.012 92.1881 193.679 85.1577 191.193 78.2472Z" fill="black"/>
<path fill-rule="evenodd" clip-rule="evenodd" d="M159.247 115.447C157.966 114.925 156.822 114.055 155.987 112.944C155.696 112.557 155.621 112.149 155.682 111.776C155.75 111.356 155.999 110.976 156.338 110.721C156.678 110.465 157.104 110.339 157.516 110.403C157.873 110.459 158.229 110.654 158.511 111.06L158.57 111.141C159.067 111.812 159.714 112.362 160.452 112.717C161.163 113.059 161.959 113.219 162.782 113.126C164.349 112.949 165.429 112.103 166.578 110.954C166.72 110.809 166.862 110.66 167.006 110.508C167.096 110.37 167.221 110.281 167.361 110.235C167.515 110.183 167.69 110.186 167.85 110.242C168.005 110.296 168.143 110.398 168.236 110.533C168.324 110.662 168.374 110.822 168.357 111.005C168.252 112.196 167.629 113.258 166.743 114.092C165.759 115.019 164.454 115.66 163.226 115.885C161.874 116.133 160.495 115.955 159.247 115.447V115.447ZM163.865 97.0799C165.304 97.953 167.497 99.9889 165.949 102.153C164.126 104.062 161.502 101.874 160.209 100.884C159.01 100.117 157.663 102.09 158.775 102.985C168.119 109.889 171.911 97.3082 164.593 96.0533C163.787 95.9151 163.488 96.8098 163.865 97.0799ZM147.12 89.0488C147.279 87.0789 150.285 86.6316 150.585 88.5809C150.852 90.3271 150.537 91.9312 149.749 93.5033C148.996 95.0053 147.103 94.3045 146.96 92.9369C146.768 91.1036 147.021 90.2742 147.12 89.0488ZM170.004 88.1767C170.424 87.6289 171.029 87.2549 171.754 87.4663C174.019 88.1269 173.351 91.3364 172.556 92.8986C172.123 93.747 170.726 93.9621 170.095 93.2152C169.065 91.997 168.573 89.5643 169.881 88.3645C169.917 88.3025 169.956 88.2399 170.004 88.1767ZM149.717 80.429L150.075 80.3665C151.182 80.1755 152.558 79.9919 153.341 80.88C153.757 81.351 153.9 82.2264 153.341 82.6772C152.359 83.4704 151.274 83.163 150.097 83.2302C149.127 83.2857 148.195 83.4459 147.261 83.7124C145.212 84.2969 143.542 85.364 141.791 86.5357C141.562 86.6894 141.327 86.3963 141.437 86.1819C142.447 84.2069 144.405 82.5846 146.367 81.5956C147.413 81.0678 148.559 80.6299 149.717 80.429ZM167.939 79.5443L168.213 79.6003C171.194 80.222 175.066 81.464 176.477 84.3856C176.531 84.7987 176.474 84.8873 176.428 84.9451L176.413 84.9644C176.375 85.0138 176.344 85.0819 176.165 85.1381C176.115 85.1262 176.065 85.1137 176.014 85.1004C175.367 84.9312 174.855 84.6981 174.36 84.4562L173.822 84.1921C173.199 83.887 172.57 83.5931 171.904 83.3761C170.481 82.9131 169.018 82.587 167.533 82.4128C167.211 82.3751 166.901 82.2667 166.656 82.0808C166.424 81.9044 166.247 81.6601 166.166 81.3354C166.061 80.9152 166.091 80.5971 166.317 80.218C166.487 79.9333 166.73 79.736 167.009 79.6227C167.293 79.5072 167.617 79.48 167.939 79.5443Z" fill="black"/>
</svg>
