<svg transform="scale(1)" version="1.1" id="AGL6XUL9MC" xmlns="http://www.w3.org/2000/svg" xmlns:xlink="http://www.w3.org/1999/xlink" x="0px" y="0px" viewBox="0 0 500 500" xml:space="preserve" class="pbimage_pbimage__wrapper__image__0LEis false"><title>Under Constructions</title><style type="text/css"> .st0{fill:#FFFFFF;} .st1{fill:#000111;} .st2{fill:url(#SVGID_1_-AGL6XUL9MC);} .st3{fill:#FED490;} .st4{fill:url(#SVGID_00000166633316440268723020000001932791680709381808_-AGL6XUL9MC);} .st5{fill:url(#SVGID_00000071535735880246583320000005971223574440170172_-AGL6XUL9MC);}
 .st3{fill:#FED490;}
 .st1{fill:#000111;}
 .st0{fill:#FFFFFF;}</style><g id="traffic_cone"><polygon class="st0" points="453.2,402.9 432,240.5 427.7,240.5 421.7,240.5 417.4,240.5 352.9,402.9 325.5,402.9 323.2,419.4 
		400.4,419.4 401.2,419.4 478.4,419.4 480.6,402.9 	" fill="#FFFFFF"></polygon><path class="st1" d="M478.4,420.5H323.2c-0.3,0-0.6-0.1-0.8-0.4c-0.2-0.2-0.3-0.5-0.2-0.8l2.2-16.6c0.1-0.5,0.5-0.9,1-0.9h26.8
		l64.3-161.7c0.2-0.4,0.6-0.7,1-0.6H432c0.5,0,0.9,0.4,1,0.9l21.1,161.5h26.5c0.3,0,0.6,0.1,0.8,0.4c0.2,0.2,0.3,0.5,0.2,0.8
		l-2.2,16.6C479.4,420.1,478.9,420.5,478.4,420.5z M324.4,418.4h153.1l1.9-14.5h-26.3c-0.5,0-0.9-0.4-1-0.9l-21.1-161.5h-13
		l-64.2,161.7c-0.2,0.4-0.6,0.7-1,0.6h-26.5L324.4,418.4z" fill="#000111"></path><linearGradient id="SVGID_1_-AGL6XUL9MC" gradientUnits="userSpaceOnUse" x1="324.32" y1="172.025" x2="479.5546" y2="172.025" gradientTransform="matrix(1 0 0.13 -1 -50.51 502)"><stop offset="0" style="stop-color: rgb(109, 151, 248);"></stop><stop offset="1" style="stop-color: rgb(0, 20, 248);"></stop></linearGradient><polygon class="st2" points="413.1,402.9 391.9,240.5 387.6,240.5 381.6,240.5 377.3,240.5 312.8,402.9 285.4,402.9 283.1,419.4 
		360.3,419.4 361.1,419.4 438.3,419.4 440.5,402.9 	"></polygon><path class="st1" d="M453.3,403.9H312.8c-0.6,0-1-0.5-1-1s0.5-1,1-1h140.5c0.6,0,1,0.5,1,1S453.8,403.9,453.3,403.9z" fill="#000111"></path></g><g id="computer"><polygon class="st1" points="258.7,419.9 171.9,419.9 184.1,321.8 270.9,321.8 	"></polygon><path class="st1" d="M258.7,420.9h-86.8c-0.3,0-0.6-0.1-0.8-0.4c-0.2-0.2-0.3-0.5-0.2-0.8l12.2-98c0.1-0.5,0.5-0.9,1-0.9h86.8
		c0.3,0,0.6,0.1,0.8,0.4c0.2,0.2,0.3,0.5,0.2,0.8l-12.2,98C259.6,420.5,259.2,420.9,258.7,420.9z M173,418.8h84.8l12-96H185
		L173,418.8z"></path><polygon class="st0" points="247.5,419.9 160.7,419.9 172.9,321.8 259.8,321.8 	"></polygon><path class="st1" d="M247.5,420.9h-86.8c-0.3,0-0.6-0.1-0.8-0.4c-0.2-0.2-0.3-0.5-0.2-0.8l12.2-98c0.1-0.5,0.5-0.9,1-0.9h86.8
		c0.3,0,0.6,0.1,0.8,0.4c0.2,0.2,0.3,0.5,0.2,0.8l-12.2,98C248.5,420.5,248,420.9,247.5,420.9z M161.9,418.8h84.8l12-96h-84.8
		L161.9,418.8z"></path><rect class="st0" x="125.1" y="407.8" width="171" height="12"></rect><path class="st1" d="M296.1,420.9h-171c-0.6,0-1-0.4-1-1v-12c0-0.6,0.4-1,1-1h171c0.6,0,1,0.4,1,1v12
		C297.1,420.5,296.7,420.9,296.1,420.9z M126.1,418.8h169v-10h-169V418.8z"></path><rect class="st1" x="240.9" y="407.8" width="55.2" height="12"></rect><path class="st1" d="M296.1,420.9h-55.2c-0.6,0-1-0.4-1-1v-12c0-0.6,0.4-1,1-1h55.2c0.6,0,1,0.4,1,1v12
		C297.1,420.5,296.7,420.9,296.1,420.9z M242,418.8h53.1v-10H242V418.8z"></path><path class="st0" d="M374.9,336H64.3l10.2-179.7c0.5-6.9,6.2-12.4,13.1-12.4h285.8c6.4-0.1,11.7,5.1,11.8,11.5c0,0.3,0,0.6,0,1
		L374.9,336z"></path><path class="st1" d="M374.9,337H64.3c-0.3,0-0.6-0.1-0.8-0.3c-0.2-0.2-0.3-0.5-0.3-0.8l10.2-179.7c0.5-7.5,6.7-13.3,14.2-13.4
		h285.8c7-0.1,12.7,5.5,12.8,12.5c0,0.3,0,0.7,0,1L376,336C376,336.6,375.5,337,374.9,337C374.9,337,374.9,337,374.9,337z M65.4,335
		H374l10.1-178.8c0.4-5.9-4-10.9-9.9-11.3c-0.3,0-0.6,0-0.8,0H87.6c-6.4,0.1-11.7,5.1-12.1,11.5L65.4,335z"></path><path class="st0" d="M374.9,336H64.3L63,357.6c-0.4,6.4,4.4,11.9,10.8,12.4c0.3,0,0.6,0,0.9,0h285.8c7-0.1,12.7-5.5,13.1-12.4
		L374.9,336z"></path><path class="st1" d="M360.6,371H74.8c-7,0.1-12.7-5.5-12.8-12.5c0-0.3,0-0.7,0-1l1.2-21.6c0-0.6,0.4-1,1-1h310.7c0.6,0,1,0.4,1,1
		c0,0,0,0.1,0,0.1l-1.2,21.6C374.2,365.1,368.1,370.9,360.6,371z M65.2,337l-1.2,20.6c-0.4,5.8,4,10.9,9.8,11.4c0.3,0,0.6,0,0.9,0
		h285.8c6.4-0.1,11.7-5.1,12.1-11.5l1.2-20.5H65.2z"></path><path class="st1" d="M363.6,336H53l10.2-179.7c0.5-6.9,6.2-12.4,13.1-12.4h285.8c6.4-0.1,11.7,5.1,11.8,11.5c0,0.3,0,0.6,0,0.9
		L363.6,336z"></path><path class="st1" d="M363.6,337H53c-0.3,0-0.5-0.1-0.7-0.3c-0.2-0.2-0.3-0.5-0.3-0.8l10.2-179.7c0.5-7.5,6.7-13.3,14.2-13.4h285.8
		c7-0.1,12.7,5.5,12.8,12.5c0,0.3,0,0.7,0,1L364.7,336C364.6,336.6,364.2,337,363.6,337z M54.1,335h308.6l10.1-178.8
		c0.4-5.8-4-10.9-9.8-11.3c-0.3,0-0.6,0-0.9,0H76.3c-6.4,0.1-11.7,5.1-12.1,11.5L54.1,335z"></path><path class="st0" d="M363.6,336H53l-1.2,21.6c-0.4,6.4,4.4,11.9,10.8,12.4c0.3,0,0.6,0,0.9,0h285.8c7-0.1,12.7-5.5,13.1-12.4
		L363.6,336z"></path><path class="st1" d="M349.3,371H63.5c-7,0.1-12.7-5.6-12.8-12.6c0-0.3,0-0.6,0-1l1.3-21.6c0-0.6,0.4-1,1-1h310.6
		c0.3,0,0.6,0.1,0.8,0.3c0.2,0.2,0.3,0.5,0.3,0.8l-1.2,21.6C363,365.1,356.8,371,349.3,371z M54,337l-1.2,20.6
		c-0.4,5.8,4,10.9,9.8,11.4c0.3,0,0.6,0,0.9,0h285.8c6.4-0.1,11.7-5.1,12.1-11.5l1.2-20.5H54z"></path><circle class="st0" cx="207.9" cy="352.2" r="9.1"></circle><path class="st1" d="M207.9,362.3c-5.6,0-10.1-4.5-10.1-10.1s4.5-10.1,10.1-10.1c5.6,0,10.1,4.5,10.1,10.1
		C218,357.8,213.5,362.3,207.9,362.3C207.9,362.3,207.9,362.3,207.9,362.3z M207.9,344.2c-4.4,0-8,3.6-8,8s3.6,8,8,8s8-3.6,8-8
		C215.9,347.8,212.3,344.2,207.9,344.2L207.9,344.2z"></path></g><g id="light"><path class="st3" d="M136.8,188.2c-8.1,0.6-14.7,6.9-15.5,15.1c-0.8-8.1-7.3-14.5-15.5-15.1c8.1-0.6,14.7-6.9,15.5-15.1
		C122.1,181.2,128.7,187.6,136.8,188.2z"></path><path class="st3" d="M111.1,171.5c-4.3,0.3-7.8,3.7-8.3,8.1c-0.4-4.3-3.9-7.7-8.3-8.1c4.3-0.3,7.8-3.7,8.3-8.1
		C103.3,167.8,106.8,171.2,111.1,171.5z"></path></g><path class="st1" id="line" d="M490,420.9H10c-0.6,0-1-0.5-1-1s0.5-1,1-1h480c0.6,0,1,0.5,1,1S490.6,420.9,490,420.9z"></path><g id="board"><linearGradient id="SVGID_00000134930657559445692240000015459272503219573158_-AGL6XUL9MC" gradientUnits="userSpaceOnUse" x1="144.2557" y1="328.5979" x2="180.4557" y2="270.6779" gradientTransform="matrix(0.998 -6.348726e-02 -6.348726e-02 -0.998 30.8566 499.7066)"><stop offset="0" style="stop-color: rgb(243, 131, 116);"></stop><stop offset="1" style="stop-color: rgb(198, 66, 52);"></stop></linearGradient><polygon points="304.6,269 115.4,281.1 120.8,220 
		310,207.9 	" style="fill: url(&quot;#SVGID_00000134930657559445692240000015459272503219573158_-AGL6XUL9MC&quot;);"></polygon><path class="st0" d="M99.5,236.8c-0.2,0-0.5-0.1-0.7-0.2c-0.4-0.3-0.5-1-0.2-1.4c0,0,0,0,0,0c8.2-9.8,14.7-12.9,18.7-13.7
		c-11.8-6.2-11.5-8.1-11.4-8.8s0.5-1.2,1.9-1.4c5.2-0.6,13.9,5.9,16.4,7.8l90.2-78.2c0.4-0.3,0.9-0.3,1.3-0.1l93.5,67.3
		c1.8-2.6,7.3-9.2,13.4-6.5c1.7,0.7,2,1.8,2,2.6c0,3-6.1,6.7-10.5,8.9c0.6,0.1,1.3,0.3,1.9,0.6c2.9,1.1,6.9,3.7,9,10.1
		c0.2,0.5-0.1,1.1-0.7,1.3c-0.5,0.2-1.1-0.1-1.3-0.7c-3.5-10.6-12.3-9.6-12.7-9.5c-0.6,0.2-1.1-0.2-1.3-0.7s0.2-1.1,0.7-1.3
		c6.2-2.8,12.8-6.9,12.8-8.8c0-0.3-0.5-0.6-0.8-0.7c-5.7-2.5-11.3,6.5-11.4,6.6c-0.1,0.2-0.4,0.4-0.7,0.5c-0.3,0.1-0.6,0-0.8-0.2
		L215.2,143l-90.2,78.2c-0.4,0.3-0.9,0.3-1.3,0c-2.9-2.3-11.1-8.1-15.4-7.9c1.6,1.6,7.8,5.3,13.4,8.1c0.5,0.2,0.8,0.8,0.6,1.3
		c-0.2,0.5-0.8,0.8-1.3,0.6l0,0c-0.1,0-8.2-1.8-20.7,13.2C100.1,236.7,99.8,236.8,99.5,236.8z"></path><circle class="st3" cx="214.1" cy="140.2" r="10"></circle><path class="st0" d="M152.2,265.9L152.2,265.9c-0.7,0-1.2-0.3-1.5-0.9c-0.3-0.9,0.1-2,3.1-4.7c5.1-4.6,11.1-8.3,17.5-10.7
		c0.3-0.4,0.6-0.9,0.8-1.4c1.4-2.8,1.3-5-0.4-6.9c-7.9-8.6-33.3,8.8-42.4,16.2c-0.4,0.4-1.1,0.3-1.5-0.1s-0.3-1.1,0.2-1.5
		c1.4-1.1,34.3-27.8,45.2-16c2.1,2.3,2.5,5.3,1,8.6c13.8-4.7,30.4-5.3,48.2-1.6c11.2,2.3,16.8-1.4,19.5-4.7
		c-4.8-1.2-8.1-3.1-9.3-5.5c-0.9-1.8-1-4.7,3.3-8.3s7.2-2.1,8.2-1.3c3.1,2.3,3.7,8.1,1.4,13.1c-0.1,0.2-0.2,0.4-0.3,0.6
		c8.9,1.6,22.5,1.3,37.8-1.9c0.6-0.1,1.1,0.2,1.2,0.8c0.1,0.6-0.2,1.1-0.8,1.2c-15.1,3.1-29.6,3.6-39.3,1.7c-6,8.8-18.2,7-22.1,6.2
		c-18.4-3.8-35.5-2.9-49.3,2.4C167.6,258.6,155.4,265.9,152.2,265.9z M168.8,252.9c-4.9,2.3-9.5,5.3-13.5,8.9
		c-0.6,0.6-1.2,1.2-1.8,1.8C159.2,261,164.4,257.3,168.8,252.9L168.8,252.9z M241.3,228c-1.5,0.2-2.9,0.8-3.9,1.8
		c-2.6,2.2-3.6,4.1-2.8,5.8c0.9,1.9,4,3.6,8.6,4.6c0.2-0.4,0.4-0.7,0.5-1c2-4.4,1.3-9.1-0.8-10.6C242.5,228.2,241.9,228,241.3,228z"></path></g><g id="hat"><path class="st3" d="M289.6,106.8c0,0,70-63.3,131.6,5.3c0,0,48.7,55.2-19.4,105.1c0,0-28.3,16.5-65.3-15.5
		C336.5,201.6,256.8,129.7,289.6,106.8z"></path><path class="st3" d="M298.9,105.9l-39.9,5.4c0,0-24,2.6-17.5,22.1s35.4,55.1,35.4,55.1s21,16.6,43.2,22.2c0,0,26.9,7.3,39.8,15.5
		s50.5,16.9,44.7-10.8L298.9,105.9z"></path><path class="st1" d="M400.7,217.1c-2.7-0.1-5.3-0.5-7.9-1c-5.4-1-10.9-1.6-16.3-2c-23.9-1.6-41.8-8.5-56.4-21.7
		c-16.5-14.9-40.8-45.4-43.5-64c-1.4-9.8,2.1-15.4,5.4-18.5c2.1-2,4.7-3.5,7.5-4.3c0.5-0.1,1.1,0.2,1.2,0.7c0,0,0,0,0,0.1
		c0.1,0.5-0.2,1.1-0.7,1.2c0,0,0,0,0,0c-0.6,0.1-13.8,3.6-11.4,20.4c1.2,8,6.9,19.4,16.1,32.3c7.9,11,16.8,21.2,26.7,30.4
		c14.2,12.8,31.8,19.6,55.2,21.2c5.5,0.4,11.1,1.1,16.5,2c5.3,0.9,8.5,1.4,11,0.3c0.5-0.2,1.1,0,1.4,0.5s0,1.1-0.5,1.4l0,0
		C403.6,216.8,402.2,217.1,400.7,217.1z"></path><path class="st1" d="M319.2,146.6c-0.1,0-0.2,0-0.4-0.1c-0.3-0.1-0.5-0.3-0.6-0.6l-6.9-15.8c-0.2-0.4-0.1-0.9,0.3-1.2
		c26.1-21.9,52.1-28.4,69.3-30.1c18.6-1.8,31,1.5,31.5,1.7c0.5,0.1,0.9,0.7,0.7,1.2c0,0,0,0,0,0.1c-0.1,0.5-0.7,0.9-1.2,0.7
		c0,0,0,0,0,0c-0.5-0.1-49.3-13-98.3,27.5l6.2,14.2c12.8-5.5,26.2-9.7,39.9-12.5c21.4-4.4,52.1-6.6,76.9,7.4
		c0.5,0.3,0.7,0.9,0.4,1.4c-0.3,0.5-0.9,0.7-1.4,0.4c-46.5-26.2-115.2,5.3-115.9,5.6C319.5,146.5,319.4,146.6,319.2,146.6z"></path><path class="st1" d="M437.8,154.7c-0.2,0-0.4-0.1-0.6-0.2c-45.5-32.4-113.1-4.4-113.7-4.1c-0.4,0.2-0.8,0.1-1.1-0.2l-3.8-3.9
		c-0.4-0.4-0.4-1.1,0-1.5c0.4-0.4,1.1-0.4,1.5,0l3.3,3.4c12.8-4.9,26-8.3,39.5-10.1c21-2.9,51.2-2.6,75.5,14.7
		c0.5,0.3,0.6,0.9,0.4,1.4C438.5,154.5,438.1,154.7,437.8,154.7L437.8,154.7z"></path><path class="st1" d="M325,136.3h-0.3c-2.7-0.2-4.7-2.5-4.5-5.1c0.2-2.6,2.5-4.7,5.1-4.5c2.7,0.2,4.7,2.5,4.5,5.1
		C329.6,134.3,327.5,136.3,325,136.3L325,136.3z M325,128.7c-1.5,0-2.7,1.1-2.8,2.6c-0.1,1.5,1.1,2.8,2.6,2.9c0,0,0,0,0,0
		c1.5,0.1,2.8-1,2.9-2.6c0,0,0,0,0,0l0,0c0.1-1.5-1.1-2.8-2.6-2.9c0,0,0,0,0,0L325,128.7z"></path></g><g id="traffic_board"><rect class="st1" x="51.3" y="379.9" width="133.8" height="11.6"></rect><path class="st1" d="M185.1,392.5H51.3c-0.6,0-1-0.4-1-1v-11.6c0-0.6,0.4-1,1-1h133.8c0.6,0,1,0.4,1,1v11.6
		C186.2,392.1,185.7,392.5,185.1,392.5C185.2,392.5,185.2,392.5,185.1,392.5z M52.3,390.5h131.8V381H52.3L52.3,390.5z"></path><polygon class="st0" points="49.9,419.9 34.7,419.9 57.3,318.4 72.5,318.4 	"></polygon><path class="st1" d="M49.9,420.9H34.7c-0.3,0-0.6-0.1-0.8-0.4c-0.2-0.2-0.3-0.6-0.2-0.9l22.6-101.4c0.1-0.5,0.5-0.8,1-0.8h15.2
		c0.3,0,0.6,0.1,0.8,0.4c0.2,0.2,0.3,0.6,0.2,0.9L50.9,420.1C50.8,420.6,50.4,420.9,49.9,420.9z M36,418.8h13.1l22.2-99.4H58.1
		L36,418.8z"></path><polygon class="st0" points="186.9,419.9 171.6,419.9 194.3,318.4 209.5,318.4 	"></polygon><path class="st1" d="M186.9,420.9h-15.2c-0.3,0-0.6-0.1-0.8-0.4c-0.2-0.2-0.3-0.6-0.2-0.9l22.6-101.4c0.1-0.5,0.5-0.8,1-0.8h15.2
		c0.3,0,0.6,0.1,0.8,0.4c0.2,0.2,0.3,0.6,0.2,0.9l-22.6,101.4C187.8,420.6,187.4,420.9,186.9,420.9z M172.9,418.8H186l22.1-99.4
		h-13.1L172.9,418.8z"></path><path class="st1" d="M43.4,420.2c-0.1,0-0.2,0-0.2,0c-0.5-0.1-0.9-0.6-0.8-1.2c0,0,0,0,0-0.1l22.5-93.5c0.1-0.6,0.7-0.9,1.2-0.8
		c0.6,0.1,0.9,0.7,0.8,1.2l-22.5,93.5C44.3,419.9,43.9,420.2,43.4,420.2z"></path><path class="st1" d="M180.7,420.2c-0.1,0-0.2,0-0.2,0c-0.5-0.1-0.9-0.6-0.8-1.2c0,0,0,0,0-0.1l22.5-93.5c0.1-0.6,0.7-0.9,1.2-0.8
		c0.6,0.1,0.9,0.7,0.8,1.2l-22.5,93.5C181.6,419.9,181.2,420.2,180.7,420.2z"></path><linearGradient id="SVGID_00000106125695483527971220000016471101047140502427_-AGL6XUL9MC" gradientUnits="userSpaceOnUse" x1="173.2475" y1="278.1609" x2="152.6575" y2="223.0909" gradientTransform="matrix(1 0 0 -1 0 502)"><stop offset="0" style="stop-color: rgb(243, 131, 116);"></stop><stop offset="1" style="stop-color: rgb(198, 66, 52);"></stop></linearGradient><polygon points="229.8,325.8 45.5,325.8 
		55.2,286.6 239.4,286.6 	" style="fill: url(&quot;#SVGID_00000106125695483527971220000016471101047140502427_-AGL6XUL9MC&quot;);"></polygon><polygon class="st3" points="216.7,325.8 32.5,325.8 42.1,286.6 226.3,286.6 	"></polygon><path class="st1" d="M216.7,326.8c-0.1,0-0.2,0-0.2,0c-0.5-0.1-0.9-0.6-0.8-1.2c0,0,0,0,0-0.1l9.6-39.2c0.1-0.6,0.7-0.9,1.2-0.8
		s0.9,0.7,0.8,1.2l-9.6,39.2C217.6,326.5,217.2,326.8,216.7,326.8z"></path><polygon class="st1" points="55.3,325.8 37,325.8 60.3,286.6 78.7,286.6 	"></polygon><polygon class="st1" points="91.1,325.8 72.7,325.8 96.1,286.6 114.5,286.6 	"></polygon><polygon class="st1" points="126.9,325.8 108.5,325.8 131.9,286.6 150.2,286.6 	"></polygon><polygon class="st1" points="162.7,325.8 144.3,325.8 167.7,286.6 186,286.6 	"></polygon><polygon class="st1" points="198.4,325.8 180.1,325.8 203.4,286.6 221.8,286.6 	"></polygon><path class="st0" d="M239.4,287.9H66c-0.6,0-1-0.5-1-1s0.5-1,1-1h173.4c0.6,0,1,0.5,1,1S240,287.9,239.4,287.9z"></path></g></svg>